<svg width="313" height="267" viewBox="0 0 313 267" fill="none" xmlns="http://www.w3.org/2000/svg">
<path d="M198.17 45.1679C227.543 45.1679 255.713 56.8289 276.485 77.5863C297.257 98.3437 308.93 126.498 308.936 155.856V262.399H115.119C85.7455 262.399 57.5752 250.738 36.8032 229.981C16.0312 209.224 4.35859 181.07 4.35248 151.711V45.1679H198.17ZM198.17 41.5067H0.689453V151.711C0.726045 182.031 12.7944 211.099 34.2468 232.536C55.6991 253.974 84.7834 266.03 115.119 266.061H312.599V155.856C312.563 125.536 300.494 96.4685 279.042 75.0311C257.589 53.5937 228.505 41.5372 198.17 41.5067Z" fill="#004EA1"/>
<path d="M57.7541 3.14467V108.007H22.368V29.7172H4.39844V3.14467H57.7541Z" fill="#004EA1"/>
<path d="M59.9188 110.172H20.2016V31.8817H2.20898V0.957169H59.8036L59.9188 110.172ZM24.5557 105.82H55.5647V5.30917H6.56314V27.6218H24.5557V105.82Z" fill="white"/>
<path d="M93.9 103.517L99.7056 97.7143L102.148 100.155L113.436 88.8721L115.325 90.7603L116.661 82.5399L108.437 83.8754L110.556 85.9938L102.148 94.3985L99.7056 91.9577L93.5084 98.1518V79.5925H89.9375V107.086H117.445V103.517H93.9Z" fill="#004EA1"/>
</svg>
