<svg width="338" height="269" viewBox="0 0 338 269" fill="none" xmlns="http://www.w3.org/2000/svg">
<path d="M222.856 47.1679C252.226 47.1679 280.394 58.8297 301.163 79.5877C321.931 100.346 333.599 128.5 333.599 157.856V264.399H139.804C110.431 264.399 82.2608 252.738 61.4888 231.981C40.7168 211.224 29.0441 183.07 29.038 153.711V47.1679H222.856ZM222.856 43.5067H25.375V153.711C25.4116 184.031 37.48 213.099 58.9323 234.536C80.3847 255.974 109.469 268.03 139.804 268.061H337.262V157.856C337.231 127.538 325.168 98.4706 303.719 77.0325C282.27 55.5945 253.189 43.5372 222.856 43.5067Z" fill="#FF553A"/>
<path d="M93.1987 82.5826V110.007H9.08744V88.2701L47.0539 53.2008C49.6782 50.9388 51.9052 48.2537 53.6427 45.2567C54.6896 43.2751 55.2502 41.0731 55.2783 38.8323C55.3375 37.6877 55.1337 36.5446 54.6825 35.4909C54.2312 34.4372 53.5446 33.5007 52.6751 32.7534C50.4819 31.1634 47.7982 30.397 45.0956 30.5889C41.9236 30.5836 38.8127 31.4606 36.1109 33.1218C33.2937 34.8323 31.0484 37.3409 29.6602 40.3291L2.98242 26.9968C6.99518 19.4906 13.1228 13.326 20.6064 9.26639C29.1724 4.70611 38.7812 2.4599 48.4822 2.7499C56.027 2.60592 63.524 3.97616 70.5295 6.77953C76.4977 9.14609 81.6847 13.1341 85.5041 18.2928C89.1019 23.3079 90.9918 29.3461 90.8949 35.5165C90.9321 41.1439 89.6791 46.7051 87.2319 51.7732C83.5675 58.3279 78.7162 64.1448 72.9254 68.9279L57.9277 82.5596L93.1987 82.5826Z" fill="#FF553A"/>
<path d="M95.3885 112.172H6.94614V87.326L45.5806 51.635C47.9981 49.5337 50.0665 47.0622 51.7087 44.3126C52.585 42.6235 53.0655 40.7574 53.114 38.8554C53.1778 38.0287 53.044 37.1988 52.7235 36.4341C52.403 35.6693 51.9051 34.9918 51.271 34.4573C49.4664 33.2065 47.2868 32.6131 45.0968 32.7764C42.3134 32.7886 39.5901 33.5868 37.2409 35.079C34.7858 36.572 32.8294 38.7598 31.6197 41.3652L30.6521 43.3455L0.0117188 27.8718L1.07144 25.8915C5.27265 18.0293 11.6778 11.5633 19.5017 7.28611C28.3841 2.51359 38.3559 0.132965 48.4373 0.378175C56.2767 0.331837 64.0465 1.85057 71.2909 4.84531C77.6326 7.38296 83.144 11.6321 87.2101 17.1184C91.0574 22.4848 93.0911 28.9381 93.0156 35.5396C93.0494 41.4951 91.7175 47.3793 89.1222 52.7403C85.3292 59.5454 80.3065 65.5884 74.3088 70.5628L63.481 80.4181H95.4115L95.3885 112.172ZM11.3924 107.82H91.1264V84.7931H52.2155L71.2909 67.3391C76.862 62.7461 81.5465 57.1743 85.1136 50.8982C87.4129 46.1221 88.5946 40.8857 88.5693 35.5856C88.6545 29.8688 86.9022 24.2755 83.57 19.6283C79.9754 14.7984 75.1107 11.06 69.517 8.82888C62.7786 6.1475 55.5738 4.83251 48.3221 4.96044C39.0011 4.68626 29.7687 6.83652 21.5291 11.2006C15.1088 14.7285 9.73002 19.8824 5.93247 26.1448L28.6939 37.5198C30.2407 34.9928 32.3744 32.8759 34.9141 31.3487C37.9499 29.4634 41.4536 28.4663 45.0277 28.4704C48.2347 28.2931 51.4034 29.2375 53.9894 31.1415C55.1189 32.0775 56.0194 33.259 56.6223 34.5959C57.2252 35.9328 57.5145 37.3897 57.4682 38.8554C57.4212 41.4397 56.7745 43.9779 55.579 46.2699C53.7326 49.4976 51.3485 52.3867 48.5295 54.8127L11.3924 89.2372V107.82Z" fill="white"/>
<path d="M107.645 81.5694V104.25H141.326V81.5694H107.645ZM124.462 93.451L111.676 83.6187H137.271L124.462 93.451ZM120.039 92.6451L109.695 101.05V84.678L120.039 92.6451ZM121.698 93.9346L124.462 96.053L127.365 93.7504L137.456 102.132H111.561L121.698 93.9346ZM129.024 92.53L139.276 84.678V101.027L129.024 92.53Z" fill="#FF553A"/>
</svg>
