<svg width="338" height="266" viewBox="0 0 338 266" fill="none" xmlns="http://www.w3.org/2000/svg">
<path d="M222.764 44.3143C252.135 44.3143 280.303 55.9761 301.071 76.7341C321.839 97.4922 333.507 125.646 333.507 155.002V261.546H139.689C110.318 261.546 82.1504 249.884 61.3821 229.126C40.6137 208.368 28.9462 180.214 28.9462 150.858V44.3143H222.764ZM222.764 40.6531H25.2832V150.858C25.3198 181.174 37.385 210.238 58.8324 231.674C80.2797 253.111 109.358 265.17 139.689 265.207H337.17V155.002C337.133 124.686 325.068 95.6224 303.621 74.1856C282.173 52.7489 253.095 40.6896 222.764 40.6531Z" fill="#16CABD"/>
<path d="M86.3797 54.6531C90.7594 59.9825 93.0737 66.7094 92.8994 73.6039C92.911 79.8424 91.1189 85.9515 87.7389 91.1961C83.8042 97.06 78.261 101.665 71.7737 104.459C63.3006 108.102 54.1304 109.839 44.9115 109.548C37.4859 109.571 30.0793 108.799 22.8182 107.246C16.0341 105.866 9.50048 103.459 3.44336 100.107L15.423 74.0414C19.7526 76.5578 24.4021 78.4787 29.2458 79.752C33.9127 81.0032 38.7205 81.6532 43.5523 81.6862C46.9788 81.8395 50.388 81.1184 53.4586 79.5908C54.5864 79.0516 55.5367 78.2017 56.1978 77.1412C56.859 76.0806 57.2034 74.8534 57.1907 73.6039C57.1907 68.8144 53.0439 66.4196 44.7503 66.4196H30.9275V44.7287L46.3629 29.0017H8.8803V2.29102H87.209V24.0049L67.719 43.7616C74.9598 45.2643 81.5119 49.0885 86.3797 54.6531Z" fill="#16CABD"/>
<path d="M44.9116 111.736C37.3269 111.727 29.7651 110.901 22.3576 109.272C15.4079 107.85 8.70774 105.406 2.47589 102.019L0.748047 101.028L14.5708 71.0941L16.6442 72.2915C20.8182 74.6985 25.2969 76.534 29.9601 77.7487C34.4674 78.9688 39.1132 79.6034 43.7828 79.6369C46.8298 79.7773 49.8635 79.1518 52.6063 77.8178C53.4052 77.4749 54.0839 76.9019 54.5558 76.1719C55.0276 75.442 55.2713 74.588 55.2556 73.7191C55.2556 72.4757 55.2556 68.6993 44.9807 68.6993H28.8542V43.8078L41.2716 31.1432H6.71485V0.126587H89.2826V24.903L71.7508 42.7025C78.0208 44.6246 83.6141 48.2904 87.8772 53.2716C92.5333 59.0084 94.9845 66.2196 94.7886 73.604C94.8004 80.259 92.8884 86.7758 89.2826 92.3705C85.1227 98.5697 79.2696 103.445 72.4189 106.417C63.7451 110.165 54.3584 111.981 44.9116 111.736ZM6.39232 99.1633C11.7393 101.852 17.4169 103.826 23.2791 105.035C30.3884 106.564 37.6397 107.336 44.9116 107.338C53.7957 107.613 62.6327 105.947 70.8062 102.456C76.9175 99.83 82.1466 95.5065 85.873 89.9988C89.0323 85.0968 90.712 79.389 90.7109 73.5579C90.8689 67.168 88.7271 60.9337 84.675 55.9887C80.0993 50.7947 73.9512 47.237 67.1662 45.8571L63.4571 44.936L84.9975 23.084V4.43252H11.046V26.7452H51.5235L33.0932 45.5347V64.1861H44.9116C57.0065 64.1861 59.5407 69.275 59.5407 73.5579C59.5532 75.1946 59.1037 76.8016 58.2439 78.1946C57.3841 79.5875 56.1488 80.7099 54.6797 81.433C51.281 83.1238 47.5058 83.9165 43.7137 83.7356C38.6943 83.6972 33.7005 83.0162 28.8542 81.7093C24.578 80.5936 20.4429 78.9945 16.529 76.9428L6.39232 99.1633Z" fill="white"/>
<path d="M142.351 114.851L133.662 111.128C133.291 110.969 132.879 110.936 132.487 111.033C132.095 111.129 131.746 111.35 131.49 111.663L127.643 116.363C121.604 113.517 116.744 108.657 113.897 102.619L118.598 98.7715C118.911 98.5168 119.133 98.1671 119.229 97.7752C119.326 97.3833 119.292 96.9706 119.133 96.5996L115.41 87.9118C115.235 87.5119 114.927 87.1853 114.537 86.9885C114.148 86.7917 113.702 86.7369 113.276 86.8336L105.209 88.6953C104.798 88.79 104.432 89.021 104.17 89.3505C103.908 89.68 103.766 90.0886 103.766 90.5096C103.766 110.406 119.894 126.502 139.761 126.502C140.182 126.502 140.591 126.36 140.92 126.097C141.25 125.835 141.481 125.469 141.576 125.059L143.438 116.992C143.534 116.564 143.478 116.117 143.28 115.726C143.081 115.335 142.753 115.026 142.351 114.851Z" fill="#16CABD"/>
</svg>
