<svg width="340" height="266" viewBox="0 0 340 266" fill="none" xmlns="http://www.w3.org/2000/svg">
<path d="M224.856 44.811C254.226 44.811 282.394 56.4727 303.163 77.2308C323.931 97.9888 335.599 126.143 335.599 155.499V262.042H141.804C112.431 262.042 84.2608 250.381 63.4888 229.624C42.7168 208.867 31.0441 180.713 31.038 151.354V44.811H224.856ZM224.856 41.1498H27.375V151.354C27.4116 181.674 39.48 210.742 60.9323 232.179C82.3847 253.617 111.469 265.673 141.804 265.704H339.262V155.499C339.231 125.181 327.168 96.1136 305.719 74.6756C284.27 53.2375 255.189 41.1803 224.856 41.1498Z" fill="#FF8324"/>
<path d="M105.243 89.7817H91.3048V107.765H56.9784V89.7817H2.58594V67.3079L47.0951 2.8338H83.3567L43.8007 62.2651H58.0381V46.1465H91.3048V62.2651H105.243V89.7817Z" fill="#FF8324"/>
<path d="M93.4948 109.815H54.8604V91.8541H0.421875V66.525L45.9678 0.623291H87.4359L58.5234 44.0512H93.4948V60.1697H107.433V91.9462H93.4948V109.815ZM59.1684 105.486H89.1177V87.479H103.056V64.4526H89.1177V48.3341H60.2052V64.4526H39.7475L79.3035 4.9983H48.2485L4.75301 67.9066V87.479H59.1684V105.486ZM47.949 60.0776H55.9662V48.0578L47.949 60.0776Z" fill="white"/>
<path d="M122.925 101.595C121.3 101.595 119.674 100.177 118.861 99.5696C114.796 96.7347 113.577 95.7222 112.764 95.1148V103.619C112.764 104.738 113.674 105.644 114.796 105.644H131.055C132.177 105.644 133.087 104.738 133.087 103.619V95.1148C132.274 95.7222 131.055 96.7347 126.99 99.5696C126.177 100.177 124.551 101.595 122.925 101.595ZM131.055 89.4449H114.796C113.674 89.4449 112.764 90.3517 112.764 91.4699V92.4823C114.39 93.6973 114.186 93.6973 120.08 97.9497C120.69 98.3546 121.909 99.5696 122.925 99.5696C123.942 99.5696 125.161 98.3546 125.771 98.1522C131.665 93.8998 131.461 93.8998 133.087 92.6848V91.4699C133.087 90.3517 132.177 89.4449 131.055 89.4449ZM147.314 83.3701H126.99C125.868 83.3701 124.958 84.2769 124.958 85.3951V87.42H131.055C133.164 87.42 134.903 89.0286 135.101 91.0788L135.12 91.0649V99.5696H147.314C148.436 99.5696 149.346 98.6628 149.346 97.5447V85.3951C149.346 84.2769 148.436 83.3701 147.314 83.3701ZM145.281 91.4699H141.217V87.42H145.281V91.4699ZM122.925 85.3951C122.925 83.162 124.749 81.3452 126.99 81.3452H141.217V75.2704C141.217 74.1523 140.306 73.2455 139.184 73.2455H118.861C117.738 73.2455 116.828 74.1523 116.828 75.2704V87.42H122.925V85.3951Z" fill="#FF8324"/>
</svg>
