<svg width="88" height="64" viewBox="0 0 88 64" fill="none" xmlns="http://www.w3.org/2000/svg">
<g clip-path="url(#clip0_322_328)">
<path d="M56.522 35.6986C55.5846 41.7638 52.3725 47.2541 47.5286 51.0708C42.6848 54.8874 36.5664 56.7489 30.3981 56.2826C24.2298 55.8164 18.4665 53.0568 14.2617 48.5561C10.0569 44.0554 7.7207 38.1457 7.7207 32.0096C7.7207 25.8735 10.0569 19.9638 14.2617 15.4631C18.4665 10.9624 24.2298 8.20281 30.3981 7.73654C36.5664 7.27026 42.6848 9.13173 47.5286 12.9484C52.3725 16.7651 55.5846 22.2554 56.522 28.3206" stroke="#8DCA00" stroke-width="0.75" stroke-linecap="round" stroke-linejoin="round"/>
<path d="M63.5747 28.3206C62.6264 20.4003 58.6636 13.1385 52.4965 8.02015C46.3294 2.9018 38.424 0.313584 30.3969 0.784735C22.3698 1.25589 14.8273 4.75082 9.31186 10.5549C3.79639 16.3589 0.724609 24.0336 0.724609 32.0096C0.724609 39.9856 3.79639 47.6603 9.31186 53.4643C14.8273 59.2684 22.3698 62.7633 30.3969 63.2345C38.424 63.7056 46.3294 61.1174 52.4965 55.9991C58.6636 50.8807 62.6264 43.6189 63.5747 35.6986" stroke="#8DCA00" stroke-width="1.75" stroke-linecap="round" stroke-linejoin="round"/>
<path d="M49.4915 35.6986C48.5739 39.8914 46.1258 43.5996 42.6181 46.1101C39.1105 48.6207 34.7909 49.7563 30.4901 49.2985C26.1893 48.8408 22.2109 46.8221 19.3201 43.6305C16.4292 40.439 14.8301 36.3001 14.8301 32.0096C14.8301 27.7192 16.4292 23.5802 19.3201 20.3887C22.2109 17.1972 26.1893 15.1784 30.4901 14.7207C34.7909 14.2629 39.1105 15.3985 42.6181 17.9091C46.1258 20.4196 48.5739 24.1279 49.4915 28.3206" stroke="#8DCA00" stroke-width="0.75" stroke-linecap="round" stroke-linejoin="round"/>
<path d="M56.522 28.3206C55.5846 22.2554 52.3725 16.7651 47.5286 12.9484C42.6848 9.13173 36.5664 7.27026 30.3981 7.73654C24.2298 8.20281 18.4665 10.9624 14.2617 15.4631C10.0569 19.9638 7.7207 25.8735 7.7207 32.0096C7.7207 38.1457 10.0569 44.0554 14.2617 48.5561C18.4665 53.0568 24.2298 55.8164 30.3981 56.2826C36.5664 56.7489 42.6848 54.8874 47.5286 51.0708C52.3725 47.2541 55.5846 41.7638 56.522 35.6986" stroke="#8DCA00" stroke-width="1.75" stroke-linecap="round" stroke-linejoin="round"/>
<path d="M42.1118 35.6986C41.2411 37.988 39.5883 39.9018 37.4412 41.1067C35.2942 42.3116 32.789 42.7311 30.3622 42.2922C27.9353 41.8533 25.7406 40.5837 24.1604 38.7047C22.5803 36.8258 21.7148 34.4565 21.7148 32.0096C21.7148 29.5627 22.5803 27.1934 24.1604 25.3145C25.7406 23.4355 27.9353 22.1659 30.3622 21.727C32.789 21.2881 35.2942 21.7076 37.4412 22.9125C39.5883 24.1174 41.2411 26.0312 42.1118 28.3206" stroke="#8DCA00" stroke-width="1.75" stroke-linecap="round" stroke-linejoin="round"/>
<path d="M49.4915 28.3206C48.5739 24.1279 46.1258 20.4196 42.6181 17.9091C39.1105 15.3985 34.7909 14.2629 30.4901 14.7207C26.1893 15.1784 22.2109 17.1972 19.3201 20.3887C16.4292 23.5802 14.8301 27.7192 14.8301 32.0096C14.8301 36.3001 16.4292 40.439 19.3201 43.6305C22.2109 46.8221 26.1893 48.8408 30.4901 49.2985C34.7909 49.7563 39.1105 48.6207 42.6181 46.1101C46.1258 43.5996 48.5739 39.8914 49.4915 35.6986" stroke="#8DCA00" stroke-width="1.75" stroke-linecap="round" stroke-linejoin="round"/>
<path d="M32.1543 32.0096H76.7064" stroke="#8DCA00" stroke-width="1.75" stroke-linecap="round" stroke-linejoin="round"/>
<path d="M87.2639 21.5191L76.707 32.0096L87.2639 42.4809" stroke="#8DCA00" stroke-width="1.75" stroke-linecap="round" stroke-linejoin="round"/>
<path d="M79.381 21.5191L68.8047 32.0096L79.381 42.4809" stroke="#8DCA00" stroke-width="1.75" stroke-linecap="round" stroke-linejoin="round"/>
</g>
<defs>
<clipPath id="clip0_322_328">
<rect width="88" height="64" fill="white"/>
</clipPath>
</defs>
</svg>
