<svg width="400" height="479" viewBox="0 0 400 479" fill="none" xmlns="http://www.w3.org/2000/svg">
<g style="mix-blend-mode:multiply">
<path d="M145.845 43.8629L144.414 46.5884L144.532 47.0982L144.747 47.1962L145.002 47.5492L144.963 47.7845L145.453 48.157L147.414 46.7256L148.1 47.6276L149.238 47.9217L149.669 47.51L149.532 47.0002L149.414 46.9609L147.355 44.0002L147.12 43.9217L147.042 43.6276L147.434 43.1962L147.414 42.9609H146.277L145.845 43.8629Z" fill="#D1DADB"/>
<path d="M182.553 133.039L174.279 129.941L173.847 130.157L173.004 129.137L170.377 128.275L169.455 128.726V128.549V128.314L169.142 127.726L168.24 127.431V127.647L167.298 127.863L166.847 127.647L167.789 127.157L167.906 125.667L155.377 116.941L155.789 116.529L153.828 116.255L153.71 116.569L150.259 116.686L149.887 116.431V116.314L148.063 115.02L146.612 116.216L146.318 116.078V115.745L146.828 115.255L146.71 114.824H146.377L142.71 116.412L141.024 118.902L139.24 117.784L136.396 118.235L134.142 115.922L134.887 112L134.749 111.824L134.298 111.647L129.534 111.137V110.961L131.828 105.51L131.475 104.98L128.102 105.843L127.044 107.961L123.534 108.451L121.22 105.667L122.043 98.0981L125.612 95.9216L129.083 96.5687L129.73 96.3138L130.279 95.2157L135.553 95.7648L137.71 100.961H138.436L138.298 94.2353L144.318 89.2746V86.0589H144.416H144.534L144.808 86.7844L148.73 82.4314L148.318 82.1373L150.887 81.6863L150.534 80.6079L156.416 77.0393L155.161 78.1961V78.6667L155.573 79.2354H155.808L161.494 76.4706V76.1373L161.142 75.1961H160.828L159.436 76.5491H159.083L158.867 76.6667L157.142 75.2942L157.259 74.1373L157.024 73.804H156.691L157.73 73.255L157.828 72.7059L157.553 72.3138L156.416 72.0393L153.298 73.1765L152.906 73.5883L152.102 74.0001L166.553 68.6471L166.887 66.5295L166.024 66.0197V65.7844V65.451V65.1961L165.612 64.7648V64.451L162.534 61.9216V61.5099L162.965 61.0785L161.593 55.0589L161.416 54.9412L158.338 58.1569L157.789 58.0197L156.828 56.5883L157.553 53.9608L157.416 53.6667L156.004 53.0589L154.985 51.0981L151.749 50.2353L150.593 50.8628L149.906 55.1569L148.593 56.5491L149.298 60.8824L146.044 62.8432L145.259 67.6667L144.455 68.0785L144.024 67.9804L142.828 65.7844L143.671 62.4314L136.965 58.0981L135.357 58.2157L135.534 55.4314L135.357 55.2746H134.887L134.553 55.0001L139.298 48.2354H139.789L140.514 47.5883V47.0197H140.612L142.142 46.2354L143.259 46.3922L146.024 43.353H145.828L146.416 42.9608L146.593 42.255V42.1373L146.71 41.9608L149.436 42.451L151.553 40.9216V38.4903H152.004L152.769 37.3726V36.7648L150.808 35.0393L147.867 38.5491L147.592 38.2158L147.259 38.6667V39.5883L146.828 39.7452L146.573 39.5098L146.416 38.804L147.024 37.1765L146.651 35.6863H146.338L145.259 37.0981L145.142 36.9609L145.338 35.7648L145.651 35.4706V35.0001L144.494 34.4118V34.1961L145.671 33.0197L145.534 28.6079L147.024 27.0001L148.24 27.1961L150.593 24.9216L150.396 24.2746L147.475 23.4511L143.789 29.5491L143.259 29.7059L141.651 32.7648L142.102 33.9412L143.161 34.5883L142.181 35.4706L142.338 35.8432H142.553L142.455 36.2746L140.259 37.9216L140.004 38.902L139.651 38.4314V37.8824L140.298 37.0197L139.612 36.0785L140.553 36.1961L141.318 35.8432L141.436 35.6471V34.804L142.083 33.9216L140.318 32.9608L138.357 34.4511V34.7648L139.455 35.8628L138.396 36.1961L137.789 37.1765L135.24 36.9609L133.436 35.4706L133.161 33.9412L132.573 33.4314L130.906 33.6471L130.377 34.1177L130.573 34.6471L132.534 34.2354L132.691 34.353L130.22 35.6471L129.789 37.1373L129.475 37.255L128.789 34.9608L124.612 34.1373V33.804L125.2 33.4118H125.553L126.2 32.6471L121.24 28.2746L119.553 28.8628L119.357 28.6275L119.828 27.2942V27.1961H119.73L118.181 28.255L118.044 28.0981V25.1177H117.847L116.573 26.5687H115.965L115.671 27.2942H115.573V26.804L115.887 26.4902L115.985 26.1177L115.847 25.804L111.495 26.6079V26.1765L109.847 26.5295L108.985 27.3726L100.455 19.9412L99.867 20.0785L99.5533 19.9412L99.1808 18.9412L99.3572 18.3922L99.122 18.1373L98.2004 17.8628L97.8278 17.0393L97.2396 17.255V17.451L96.867 17.5687L96.769 17.353L97.2984 17.255L97.867 17.0589L97.3768 16.2354L84.8278 19.8824L84.3965 25.0785L85.0239 25.4314V25.6471L84.6514 25.8628V26.8236L84.8082 26.9804H85.1219V26.7648L86.1415 26.8628V27.1765H85.9651L85.0239 26.8824L84.8082 27.2158L83.4357 27.4903L82.7101 27.0981L82.5925 26.6863L82.867 26.2942L82.5141 25.6667L78.2396 26.9412L78.1024 27.451L78.6709 28.2353L78.2984 28.5687L77.9651 30.1569L81.0827 31.1569L82.671 30.6667L80.7102 33.4707L79.8474 32.8824L78.7102 33.902H78.4945L78.3572 33.7059L77.6513 33.4707L74.0239 37.6863V40.8824L74.3572 41.1961H75.7494V40.7256V40.8432V41.1961L75.0435 44.0785L76.1023 43.804L76.9454 44.7844H77.2003V44.6863H78.5729V44.8824L67.9062 51.804V52.0197L68.1023 52.1373L71.7298 50.6863L72.0239 51.1765L82.1023 45.6275L82.2788 45.0001L82.1023 44.6863V44.255L86.8278 41.2158L87.3376 41.5687V41.9412L85.8082 42.1177L84.4945 43.8236V44.5491L83.8474 44.8824V45.1961L84.1219 45.4118L88.8082 43.8236L88.4749 42.9608L88.6513 42.3334L90.3376 42.6667L90.22 42.4314L90.0239 42.3334V42.8432L93.6709 45.8236L93.8866 46.0785L94.965 46.451L96.2396 49.6079L96.769 49.804L97.0435 49.4706L96.9455 49.0197H97.0827L97.6121 50.1765H97.416L97.2004 50.0785L96.5925 50.3334V51.7648V53.7255H96.7886L97.1807 53.0393L98.5533 51.0785H98.7298L98.4945 52.7059L98.769 53.1177H99.1808L98.7494 52.6275H97.1219L96.8866 53.7844L97.1023 54.1177H97.2984L97.4357 53.8432V53.9412L97.2984 54.1177L97.5729 56.6863L97.769 56.7844L97.965 56.6667L98.2984 55.5491H98.8474L99.1023 55.9805V56.1961V56.9216V56.2354L98.9259 56.5883L99.2003 56.902H99.5533V57.1373L98.5925 59.0981L99.1023 59.4902L99.9063 59.2942H100.024L99.3376 60.5687L99.4553 60.706L100.142 61.7648L99.9455 62.1569L99.8082 63.1765L101.769 65.0197L102.024 66.2746V66.5295L102.691 66.8628L102.926 68.3334L102.475 68.6667L101.494 68.2354H101.828L102.2 67.8824L101.396 65.5491L98.9454 63.804L98.6906 64.0001L101.279 67.9216L98.2004 82.1569L99.122 84.1177L98.9847 84.451L104.965 96.8432L104.436 97.0589L104.298 97.353L106.593 99.7059L106.749 100.961L108.436 102.922H108.867L109.083 102.392L105.161 92.7256L105.338 92.6275L109.475 99.1569L109.338 99.353L112.808 104.824L112.632 106.784L136.553 119.745H137.298L137.416 118.98L138.142 118.177H138.475L140.161 123.745L136.455 129.863L137.122 130.51L137.357 130.255V130.451L136.043 132.529L147.867 147.098L147.632 173.51L147.926 173.902L147.338 174.275L147.455 175.784H147.867L148.181 174.471L147.945 173.824L148.514 173.706L148.73 173.863L148.632 179.118H148.436H148.338L148.2 178.686L147.004 180.275V180.471H147.2L147.494 180.314L148.2 180.431L148.416 180.824L148.318 181.745H148.22L147.612 181.98L147.436 182.392L147.73 183.137L147.553 183.706H147.808V184.745L148.122 185.098H148.377L148.514 185.569V186.745L148.789 187.039L149.083 186.726L149.22 185.863V185.765L149.632 187.02L149.259 187.275H149.024L148.847 187.412L150.808 189.373L149.514 189.059V189.275L151.475 190.706H151.926L152.142 190.373V190.726L153.808 192.177L154.259 191.686H154.475L154.592 192.353L155.847 192.51L156.024 192.157L157.161 191.529H157.632L158.396 190.98V190.863L154.318 187.882H153.887L153.259 189.235V188.765L154.534 187.588H154.651L154.847 187.49L154.024 185.529L156.142 181.059V180.706L154.416 179.392L154.298 178.216L155.651 177.294L156.475 174.49H156.2V174.314H156.318L156.475 174.549H156.71L157.142 174.078L156.965 173.51L156.671 173.392H156.455L155.612 173L155.377 172.078L155.71 171.824L157.318 172.255L158.043 171.529V169.569L158.338 169.196L161.651 168.706L162.906 166.627L162.671 166.118L162.357 165.961L162.024 164.549L161.142 163.922L163.906 164.392L165.338 163.628L166.671 160.706L166.867 160.078L167.161 159.98L167.494 159.118L167.691 159L167.906 159.49L170.259 153.157L176.867 149.726L182.004 132.51L182.553 133.039Z" fill="#D1DADB"/>
<path d="M199.572 40.4312L199.612 40.1959L196.827 39.7057L196.749 39.6273L196.769 39.4312L197.337 39.2351L197.69 38.6469L197.572 37.941L197.827 37.7057L198.004 37.8233L198.592 39.1567L199.886 39.5684L200.416 39.1371L200.102 36.7057L198.494 34.941L198.337 34.0978L198.455 33.9214L198.651 33.941L200.004 35.7449L200.298 35.6077L200.533 34.0782L199.749 33.5292L199.651 33.2547L198.867 32.8822L198.886 32.8037L198.984 32.7449L199.22 32.7841L199.572 33.1959H199.631L199.651 33.2547L200.729 33.392L201.886 32.8626L202.023 32.392L201.827 31.9998L200.965 31.6273L200.925 31.5096L202.592 31.3724L202.925 30.4312L202.259 29.3528L202.808 29.2743L202.886 26.7057L202.063 26.3724L201.827 26.039L201.867 25.6861L202.278 25.9606V25.9018L202.023 25.6469L202.004 25.6665L202.592 25.0586L203.063 25.039L203.808 27.0782H203.906L204.474 24.4116L204.141 23.941L203.376 23.6665L203.337 23.5488L203.788 22.9214L203.082 22.1175L203.121 22.0194L203.847 21.6469L206.965 15.4508L206.827 15.0194L206.004 14.8626L205.945 14.7841L206.082 14.6077L207.925 14.4116L208.004 13.843L209.337 13.039L209.455 11.7449L207.455 10.7645L206.278 10.9998L206.023 11.5292L205.612 11.6861L205.2 11.49L202.102 13.2351L202.082 13.2743L201.514 13.7841L204.141 10.9214L203.337 9.86256L203.043 10.0194L202.827 10.5881L202.259 10.9802L200.847 10.941L200.788 10.8626L200.827 10.7645L201.886 10.0782L201.71 9.66648L196.906 10.1567L196.769 10.0194L196.788 9.92139L205.102 8.29393L205.141 7.52923L202.337 6.58805L202.396 6.50962L202.729 6.37236L202.906 5.52923L202.514 5.31354L196.357 5.66648L196.259 5.60766L196.278 5.50962L202.161 4.86256L202.2 4.64687L196.023 2.92139L195.239 3.76452L195.2 3.74491V3.78413L195.239 3.76452L195.2 3.9802H195.239L195.278 4.05864L195.2 4.01942V3.9802L194.474 3.68609L194.278 3.72531V4.39197L192.435 3.92138L191.533 4.41158L191.474 5.25472L190.925 5.99982L189.925 5.76452L189.651 5.9606L190.298 9.27432L190.102 9.49001L189.22 8.82334L189.337 8.2155L187.886 6.07824L187.376 6.2155L187.063 8.4704L186.18 8.66648L185.965 8.49001L185.906 6.41158L185.827 6.33315L185.612 6.41158L185.043 8.13707V8.17629L184.455 8.70569L184.435 8.82334L184.455 8.62727L185.043 8.13707L185.278 6.07824L184.925 5.80373L181.494 6.39197L181.121 6.80374L181.141 7.15668L181.063 7.25472L180.67 6.84295L180.082 6.94099L178.906 9.15668L177.592 9.01942L174.396 11.392L174.612 12.0586L175.514 12.3331L175.494 12.3135L175.553 12.2547L175.514 12.3331L175.494 12.8626L174.18 14.5292L168.2 16.0194L168.906 17.8626L169.102 17.7645L168.906 17.941L169.22 18.5684L171.337 18.843L171.435 19.0586L171.318 19.2351L168.259 19.4116L168.023 20.3528L168.808 21.0978L168.788 21.2939L168.376 21.5488L168.259 21.8626L169.239 23.0782L170.259 22.7841L170.847 23.1371L172.494 22.9606L175.259 24.8626L175.278 27.8233L175.612 27.941L175.671 31.5292L175.847 31.7057L175.69 32.0782L175.259 32.2743L175.357 32.7253L175.043 33.4508L175.278 33.49L175.337 33.4312L175.318 33.5096L175.278 33.49L175.043 33.7057L175.004 33.6861V33.7253L175.043 33.7057L174.631 34.5292L174.69 35.0782L175.886 35.1371L176.102 34.8822L176.22 34.8037L176.063 34.9214V34.941H176.416L176.553 34.9018L176.827 34.9998L176.318 35.7253L176.396 36.039L176.71 36.1763L176.847 36.588L176.71 36.8626L177.239 37.3724L177.18 37.4508H177.082L176.749 36.9018H176.69L176.71 36.8626L175.2 36.5096L174.769 36.941L174.847 37.4116L174.239 37.9214L174.121 38.6273L174.729 39.7449L176.102 39.6273L176.278 38.9998L175.769 38.1371L175.729 38.1175L175.71 38.039L175.769 38.0979V38.1371L177.396 38.7253L177.514 38.9802L177.22 39.2939H177.2V39.3331L177.22 39.2939L177.023 40.0782L175.043 41.2743L175.22 41.941L175.259 41.9606L175.298 41.9998L175.239 41.9802L175.22 41.941L174.906 41.9018L173.592 44.039L174.004 44.6469L174.18 44.5292L174.259 44.5488L174.043 44.6665L174.004 44.6469L173.514 45.1567L173.945 48.8429L174.2 49.039L174.945 48.8233L174.984 48.7645L175.161 48.6665L174.161 50.0782L174.533 51.2547L174.553 51.2155V51.2743L174.533 51.2547L176.416 55.3331L177.474 55.0978L178.769 56.6469L179.592 56.8037L180.102 56.5292L181.612 52.6861L181.592 52.7057L181.572 52.6665L181.416 52.6077L181.376 52.5292L181.514 52.5096L181.572 52.6665H181.612V52.6861L183.671 49.1371L183.572 48.9214L199.572 40.4312Z" fill="#D1DADB"/>
<path d="M369.496 155.51L368.888 155.451L362.574 143L361.554 142.549L360.75 139.412L360.496 139.176L360.28 139.235L358.437 146.176L357.888 146.608L353.515 143.725L353.378 143.196L354.809 140.666L354.711 140.47L349.986 139.431L349.888 139.49V139.608L350.241 139.941L350.162 140.333L348.868 140.549L347.064 142.451L346.986 143.137L346.692 143.431L345.574 143.196L345.045 142.51L344.398 142.333L341.77 144.549L341.75 144.784L341.496 145L341.143 144.961L340.868 145.314L340.966 145.784L340.907 145.882H340.711L340.358 145.392L340.045 145.314L338.456 148L330.535 150.902L329.829 155.627H329.809V155.902L329.829 156L330.084 156.549L330.574 156.608V156.627L330.084 156.608L329.633 166.078L331.025 167.098L346.005 163.255L348.358 164.314L349.358 167.549L349.633 167.765L351.966 165.588L352.084 165.568L352.162 165.666L350.711 168.196L350.79 168.392H351.143L352.103 167.608L352.221 167.765L352.005 168.784L352.103 169.039L352.692 169.078V169.039L352.75 168.98L352.711 169.078H352.692L353.103 172.176L356.123 174.137L357.437 173.117L357.633 173.137L357.672 173.235L357.613 173.568L358.378 174.666L358.692 174.725L362.103 173.176L369.672 155.608L369.594 155.431L369.496 155.51Z" fill="#D1DADB"/>
<path d="M161.944 9.07844L161.356 12.2549L161.866 12.6079L161.591 12.1961L159.63 12.4902L158.434 14.2157L158.67 14.5686H158.885L159.356 15.098L159.121 16.0981H159.003L158.532 14.9412H157.709L157.454 15.451L157.63 16.8235L154.258 17.4706V18.2549L157.179 19.8823L157.709 19.7059L157.846 19.549L159.983 19.9804L160.297 20.4118V20.5294L160.611 20.8039L162.983 19.8431V19.7451L162.474 18.7647L162.611 18.3137L164.277 17.0196L164.395 16.6863L165.964 16.5294L166.179 16.0784V15.8824H165.944H166.179L167.807 14.6275L167.611 13.4706H167.513H167.473L168.022 13.6667L168.434 13.3922L168.219 12.8627L167.67 12.6275L169.63 12.0588V11.8432L170.003 12.0784L177.415 8.15687L177.572 7.84314L176.826 7.39216L180.846 5.9804L181.297 4.80393L180.689 3.90196V3.05882L180.572 2.88235H178.826L178.709 3L179.375 2.47059V2.07843L175.219 0.490196V0.294121L173.454 0L173.14 0.313733L173.042 1.13726H172.866V0.647062L171.434 0.019612L171.121 0.490196V0.96078H171.022L170.689 0.33333L169.807 0.588241H169.689L168.807 1.96078H168.277L167.807 1L167.375 0.803929L166.356 1.76471L166.689 2.62746L165.454 2.19608L165.258 1.90196H164.846L164.493 2.2549L163.728 2.07843L162.238 2.78431V3.41176H162.434L162.591 3.19609H162.689V3.37255H162.434L162.532 4.17648L162.297 4.43138L162.493 5.09804H162.65H162.297L162.023 5.54902L162.454 6.37255L163.179 6.60785L163.375 7L164.513 7.58824L165.375 7.35294L165.532 7.74511L166.983 8.05882L168.768 7.11766L168.63 7.39216L168.787 7.7647L169.532 8.01961L165.317 8.27451L164.964 8.54902V9.5098L164.846 9.64705L163.375 7.68627H162.826L162.101 8.43138V8.88235L161.944 9.07844ZM162.179 12.7451H162.356V12.8431H162.199V12.6667H162.081L162.179 12.7451Z" fill="#D1DADB"/>
<path d="M151.75 35.0979L154.338 36.1371L154.554 35.941L153.887 35.4312H153.848L153.789 35.3724L154.573 35.9214L154.554 35.941L155.122 35.843L155.593 35.1567L155.554 34.7449L155.515 34.7253L155.554 34.2155L155.613 34.1763L155.554 34.2351L155.515 34.6665L155.534 34.6861L155.554 34.7449L156.279 35.0587L156.377 35.2547L156.181 35.941L156.985 37.5096L156.907 37.8038L156.573 37.941L156.417 38.2351L156.534 38.4116H157.475L157.573 38.49L157.515 38.6861L157.201 38.843L157.162 39.1567L157.377 39.2743L157.613 39.2155L158.26 39.5489L158.632 41.7449L156.319 44.9606L153.122 44.843L152.162 45.9018L152.26 46.5881L156.103 47.3136L157.73 50.2547V50.2743H157.75L157.73 50.2547L160.848 52.1567L161.044 52.0391L161.064 51.3528L159.711 49.0587H159.691L159.672 48.9998L159.593 48.941L160.005 48.9606L160.201 49.0194V49.0587L162.789 51.5292L163.397 49.3332L162.672 47.0979L161.985 46.5489L161.456 44.9214L161.417 44.9018L161.436 44.8626L161.573 44.9018V44.9214L161.711 44.941L162.299 44.2351L162.573 44.1959L164.515 47.0587L167.201 44.3136L167.221 43.9802L166.299 43.1959L166.417 43.2155V43.1763L166.319 43.1959L166.279 42.9606V42.9802V42.9214L166.24 42.9606L166.083 42.7841L165.613 42.7645L163.083 39.6469L163.475 38.7057L163.632 38.6077L164.221 38.7645L164.515 38.6273L164.122 35.9018L162.377 34.1763L162.319 34.2351L162.377 34.1763L162.358 33.3528L162.005 32.8822L160.26 32.4312L160.573 31.8626L160.554 31.6273L160.279 31.392L160.358 30.941L158.966 29.49L158.946 29.4116H158.985L156.319 29.9018L156.299 29.9998L156.162 30.1175L156.985 27.1371L156.436 26.49L152.926 27.7645L152.495 29.49L151.985 29.8038L151.77 30.3136L152.024 31.2351L151.966 31.3332L151.77 31.3724L151.377 29.9214L154.26 26.1959V25.9802L153.907 25.6665L151.593 25.9214L147.868 30.5489L148.162 31.2351L149.299 31.8626V32.0783L149.083 32.1371L148.456 31.7841L147.77 32.1959L148.201 33.5292L151.397 35.1567L151.75 35.0979Z" fill="#D1DADB"/>
<path d="M130.709 21.5489L125.905 24.4901L126.473 25.4509L127.571 25.5685L127.63 25.647L127.512 25.8038L125.63 26.1568L125.454 26.4509L125.473 26.9215L126.14 27.6274L128.512 28.0195L129.689 29.196V29.4117L125.473 28.5881L124.944 29.0195L124.826 29.9803L125.728 31.1372L126.532 31.3921L126.669 31.6862L126.336 32.5881L126.512 33.294L126.689 33.4313L132.571 32.6666L133.454 33.8823L135.807 34.2156L136.258 33.843L136.101 32.745L135.807 32.9215L135.689 32.9019L135.748 32.7646L136.042 32.745L136.101 32.3136H136.65L137.258 32.8626L137.963 32.3136L136.454 29.0783L139.748 22.9999L139.199 22.2156L138.493 22.0195L137.748 22.3332V23.6666L137.807 23.7646L137.748 23.7254V23.6666L136.905 22.9607L136.199 23.1764L134.787 26.8823L134.493 27.0195L134.297 26.745L134.767 23.7058L134.571 23.4117L134.16 23.4901L134.003 24.3136L133.767 24.5097L132.571 24.3136L133.199 23.9803L133.277 23.5489L132.669 22.8038L131.924 22.7254L131.238 23.1568L131.826 22.0783L131.65 21.4313L131.434 21.3136L131.473 21.2744H131.454L131.434 21.3136L130.709 21.5489Z" fill="#D1DADB"/>
<path d="M367.515 137.333L365.613 135.196L365.692 134.804L365.986 134.608L365.927 133.961L356.751 129.431L353.398 130.961L352.398 128.569L350.476 128.118L349.162 128.726L349.064 128.922L349.182 129.118L351.888 130.216L350.515 130.569L350.437 130.745L351.006 131.804L351.515 131.902L352.045 131.529L356.437 134L356.888 134.98L356.025 135.961L356.241 136.392L361.261 137.314L361.457 136.51L362.3 135.843L363.123 135.765L368.417 138.843L368.633 138.745L368.692 138.549L368.221 137.608L367.515 137.333Z" fill="#D1DADB"/>
<path d="M327.062 127.353L328.259 130.373L330.415 131.392L331.337 131.157L332.357 131.549L332.572 131.824L334.004 131.843L334.357 131.608L335.768 127.275L336.729 126.882L336.808 126.569L336.121 125.902L335.866 123.667L337.2 122.255L337.161 122.157L335.2 120.51L334.866 120.49L328.847 126.098L328.043 125.804L327.435 126L327.062 127.353Z" fill="#D1DADB"/>
<path d="M155.926 13.5293L157.613 13.7842L158.005 13.4705L157.966 13.5097L158.005 13.5293L158.24 13.4901L160.887 11.8431V11.8234L160.613 11.7842L160.358 11.8431L160.573 12.2548L160.711 12.2744L161.691 10.8823L161.319 9.21561L161.848 8.62738L161.985 7.23521L160.73 6.05875L160.417 3.196L159.632 3.01953L159.319 3.35286L159.946 3.80384L159.985 4.01953L159.907 4.09796L158.73 4.27443L158.377 4.84306L158.554 5.29404L158.456 5.50973L157.142 5.64698L156.868 6.03914L157.436 7.17639L157.73 7.25482L157.436 7.21561V7.17639L156.809 6.90188L156.495 6.98032L155.671 8.98032L155.868 9.62737L156.848 10.0587L156.907 10.2744L155.515 10.9999L155.279 12.196L155.926 13.5293Z" fill="#D1DADB"/>
<path d="M324.258 130.843L323.827 130.372L323.905 130.353L323.925 130.49L324.258 130.823V130.843L324.709 130.902L324.846 130.608L324.121 129.51L323.905 129.451L323.376 129.902L322.984 129.863L322.376 128.863L321.925 128.725L321.787 128.549L321.866 127.568L313.65 121.804L313.317 121.843L313.199 122.274L322.258 133.568L323.964 133.706L324.258 130.843Z" fill="#D1DADB"/>
<path d="M122.18 23.6666L122.16 24.647L122.395 24.8823L123.65 24.4902L123.631 24.451L123.689 24.4314L123.65 24.4902L124.121 24.7451L129.513 21.7647L129.474 21.7843H129.493L129.513 21.7647L131.454 21.2745L130.983 18.549L126.238 17.2549L121.709 22.3529L122.18 23.6666Z" fill="#D1DADB"/>
<path d="M152.908 23.7257L158.437 24.7061L159.457 24.0787L159.574 21.9806L158.692 21.2747L154.476 20.8237L153.045 19.51V19.0198L153.378 18.3728L153.339 18.7061L153.418 18.9022L153.378 19.0002L154.104 19.0787L154.241 18.8041L153.398 17.3728L152.79 17.3532L151.163 15.5688L150.261 15.6865L150.025 16.2159L150.457 17.8041L151.81 18.6081L150.614 22.2159L151.398 22.9414L152.496 22.9218L152.614 23.059L152.555 23.412L152.908 23.7257Z" fill="#D1DADB"/>
<path d="M139.103 16.7058L138.044 16.4705L137.926 16.3136L137.946 14.4117L136.789 13.0195L133.867 14.9411L133.887 15.1568L134.299 15.4117L134.338 15.5882L133.397 15.5097L132.828 16.0391L133.005 16.5686L136.044 17.5293L134.397 17.8431L134.103 18.1764L134.495 18.9999L140.554 18.8627L142.534 17.0195L142.259 16.0587L142.024 16.0195L141.456 16.3725L141.338 13.4705L140.887 13.4509L139.907 14.1764L139.279 16.1568L139.358 16.3725L139.103 16.7058Z" fill="#D1DADB"/>
<path d="M384.458 180.549L383.987 180.627L383.576 179.961L383.144 179.902L374.693 188.118L374.889 188.627L377.046 189.608L381.184 185.372L381.87 185.255L384.693 180.745L384.458 180.549Z" fill="#D1DADB"/>
<path d="M390.394 175.431H390.041L389.845 175.568L388.884 175.529L388.276 173.745L388.08 173.647L387.766 174.117L387.55 173.863L387.57 171.078L386.492 169.431H386.296L385.923 177.019L385.374 177.313L385.217 178.176L386.021 179.47L385.119 180.882L385.139 181.098L385.551 181.529L385.786 181.549L388.982 177.686H389.433L390.57 175.823L390.394 175.431Z" fill="#D1DADB"/>
<path d="M145.318 24.1765L145.475 23.7648L143.867 23.2353V23.2157H143.847L143.867 23.255L143.298 22.8628L141.886 23.804L141.828 25.6275L141.514 25.6667L141.141 24.9216L140.749 24.6863L139.945 25.4314L141.298 29.5687L141.73 29.6275L143.612 28.5883L144.612 26.5099L143.965 25.3922L143.985 25.2157L145.318 24.1765Z" fill="#D1DADB"/>
<path d="M338.808 127.431L343.376 126.51L343.318 126.177L342.984 126.098L341.651 126.784L339.259 126.431L337.808 127.549L337.004 131.412L337.298 131.628L337.494 133.431L338.298 133.471L338.651 130.882L338.827 130.765L339.004 130.902L339.494 132.431L340.043 132.804L340.259 132.784V132.745L340.318 132.726L340.278 132.784H340.259L340.729 133.392L341.22 133.196L341.259 132.235L339.945 130.098L340.004 129.706L340.612 129.235L341.631 129.177L341.671 128.51L341.533 128.353L338.925 129L338.239 128.216L338.808 127.431Z" fill="#D1DADB"/>
<path d="M168.104 72.2743L168.065 71.941L167.496 71.6077L166.359 71.8234L166.163 71.4508L166.183 71.3332L165.869 70.9018H165.555L165.496 70.9214L165.516 70.8037H165.555L166.732 68.9998L166.398 68.9214L162.967 72.6273L162.849 73.3332L162.457 73.7841L162.575 74.0783L165.986 74.4704L165.967 74.5881L165.653 74.9214L165.633 75.1371L165.849 75.2351L167.104 74.3724L167.183 74.4508L167.143 75.2351L167.888 75.6077L168.3 75.4116L168.614 74.6273L168.457 74.1175L168.418 74.1371L168.359 74.1959L168.379 74.1371H168.418L168.437 74.0783L167.928 73.941L167.83 73.7841L168.339 73.0194L167.83 72.8822L168.104 72.2743Z" fill="#D1DADB"/>
<path d="M130.751 12.7057L132.574 13.4704L135.123 11.4312V11.7449L134.613 12.5684V13.039L135.025 13.1959L137.849 10.588L137.809 9.43115L137.123 9.74488L136.123 9.43115L131.006 11.7057L130.594 12.5292L130.751 12.7057Z" fill="#D1DADB"/>
<path d="M144.318 14.9019L143.848 17.5097L144.632 18.3332L145.789 18.5097L144.867 19.294L144.808 19.7842L145.063 20.1568L145.985 20.4117L148.906 16.8234L148.71 16.1568L146.985 15.7058L146.926 17.196L146.671 17.294L146.456 17.196L146.044 16.3136L145.828 16.2156L145.612 16.3136L145.122 17.3724L145.142 17.4117L145.063 17.4313L145.103 17.3724L144.73 14.9215L144.318 14.9019Z" fill="#D1DADB"/>
<path d="M147.81 10.3727L148.477 10.5688V10.608L148.496 10.5884L148.83 10.8629L149.437 12.8237L150.104 12.9021L151.594 10.3727L151.398 8.82368L150.673 8.27467L150.437 8.35309V8.3727L150.359 8.41192L150.437 8.35309L150.496 7.64722L149.79 6.96094L148.869 7.07859L148.477 8.25505L148.731 8.64721L148.712 8.62761L148.771 8.608V8.54918L148.751 8.66683L148.731 8.64721L148.712 9.45113L148.418 9.608L148.006 9.3727L147.673 9.45113L147.477 9.74525L147.81 10.3727Z" fill="#D1DADB"/>
<path d="M330.376 136.451L333.141 136.686L333.454 136.373L333.239 136.118L331.003 135.49L331.729 135.059L324.003 133.745L323.631 134.588L323.729 134.882L330.376 136.451Z" fill="#D1DADB"/>
<path d="M359.296 177.647L356.296 177.157L356.041 177.51L356.119 181.216L356.825 181.902L358.492 181.019L359.629 178.019L359.296 177.647Z" fill="#D1DADB"/>
<path d="M143.886 106.706L143.964 106.294L136.395 103.137L133.67 104.647L133.748 104.725L135.984 103.902L140.905 106.118L140.984 106.412L140.866 106.627L141.023 106.98L143.886 106.706Z" fill="#D1DADB"/>
<path d="M343.533 117.059L342.219 118.824L341.121 118.726L340.043 119.941L340.121 120.236L341.729 119.765L342.102 120.039L342.082 120.53L342.925 121.569L343.514 121.706L343.827 121.549L343.808 120.412L343.984 120.294L344.494 120.51L344.729 119.647L343.533 117.059Z" fill="#D1DADB"/>
<path d="M144.357 108.804L145.926 108.941L146.494 109.49L149.69 108.549L149.926 108.274L149.828 108.078L145.69 106.647L145.2 106.882L145.573 107.941L143.985 108.255L143.926 108.451L144.357 108.804Z" fill="#D1DADB"/>
<path d="M151.652 12.9998L151.986 13.3135L153.299 13.3527L154.26 12.5292L154.692 12.5488V12.49L154.241 12.5292L153.28 10.2547L152.652 10.1763L151.652 12.9998Z" fill="#D1DADB"/>
<path d="M147.672 20.5296V21.2746L148.79 22.157L149.397 21.9217L149.809 20.5688L149.437 19.706L148.515 19.5884L147.672 20.5296Z" fill="#D1DADB"/>
<path d="M142.752 8.76452L143.438 9.2155L144.634 8.68609L144.712 8.09785L144.124 7.54883L141.928 7.90177L141.85 8.11746L142.752 8.76452Z" fill="#D1DADB"/>
<path d="M341.63 138.608L344.944 136.784L344.552 136.608L341.669 137.628L341.297 138.588L341.63 138.608Z" fill="#D1DADB"/>
<path d="M153.261 15.2548L153.79 14.9607V14.6274L152.143 13.7646L151.496 14.1764L151.594 14.6274L153.261 15.2548Z" fill="#D1DADB"/>
<path d="M334.632 137.118L337.004 136.843L337.044 136.647L335.867 136.196L335.593 136.53L334.279 136.392L333.887 136.608L333.946 136.902L334.632 137.118Z" fill="#D1DADB"/>
<path d="M340.454 136.824L340.905 136.471L340.866 136.255L337.748 136.51L337.689 136.725L337.827 136.902L340.454 136.824Z" fill="#D1DADB"/>
<path d="M338.005 138.373L338.357 138.392L338.534 138.02L338.397 137.824L337.22 137.373L336.965 137.431L336.848 137.627L336.926 137.843L338.005 138.373Z" fill="#D1DADB"/>
<path d="M140.219 9.84323L140.199 9.88245L140.219 9.84323L140.14 10.8824L140.905 11.5883L142.14 11.3138L143.278 10.0393L143.297 9.82362L143.14 9.64716L140.454 9.62754L140.395 8.92166L140.023 8.72559L139.689 9.03931L139.729 9.58833L140.219 9.84323Z" fill="#D1DADB"/>
<path d="M228.28 16.6666L229.162 17.4509L229.692 17.2352L229.731 17.0391L230.182 17.1764L230.084 17.3137L229.692 17.3921L229.495 17.6078V17.9999L232.358 18.6862L233.495 17.8235L234.162 15.9607L232.241 15.3333L231.711 15.4705L231.378 15.3529L231.299 15.1372L230.986 15.0195L230.829 15.1764L230.692 15.8627L229.201 15.0784L228.868 15.2744L228.75 15.7058L228.358 15.647L228.162 16.2156L228.28 16.6666Z" fill="#D1DADB"/>
<path d="M282.634 9.78418L283.399 12.6077L283.614 12.6665L286.104 10.3136L285.85 9.43124L282.595 7.78418L282.379 7.86261L282.634 9.78418Z" fill="#D1DADB"/>
<path d="M273.75 7.11754L275.181 7.74499L274.201 8.17636L275.083 9.23518L275.299 9.29401L276.005 8.19597L275.926 7.86263L276.025 7.7842H276.123L276.377 9.01949L280.789 10.6077L281.574 10.0587L281.593 9.58812L279.476 6.58812L277.279 6.66656V6.72538H277.221L276.691 7.25479L276.495 7.23518L276.515 7.11754L277.279 6.66656L276.554 4.90185L274.534 3.5293L274.123 3.66655L273.75 7.11754Z" fill="#D1DADB"/>
<path d="M319.826 15.3335L322.375 14.9218L322.552 14.4316L320.474 13.4512L320.023 13.8237L319.748 15.2355L319.826 15.3335Z" fill="#D1DADB"/>
<path d="M313.238 10.1763L313.885 11.2743L316.513 12.2351L319.591 9.37235L318.944 7.62725L317.278 7.17627L317.003 7.48999L317.454 9.41156L316.238 7.50961L315.532 7.37234L315.336 7.48999L315.179 8.60764L315.199 8.62725L315.317 8.76451L315.179 8.64686V8.60764L313.395 7.7449L313.003 7.96059L312.729 9.23509L313.238 10.1763Z" fill="#D1DADB"/>
<path d="M256.632 31.3135L256.122 32.5292L256.456 33.3527L256.259 34.0978L255.828 34.49L255.887 35.1958L256.358 35.7449L257.809 35.9998L258.632 37.0586L260.26 37.3723V37.3919H260.985L261.161 37.2547L261.26 36.9017L259.063 34.2154L259.554 28.4507L264.691 21.7253L264.044 20.7645L263.122 20.686L258.063 24.8037L257.691 26.137L256.573 27.0586L256.985 27.7841L256.632 31.3135Z" fill="#D1DADB"/>
<path d="M201.632 52.4116L205.534 50.1567L205.789 48.9214L205.319 48.5685L204.907 47.49L200.966 47.9998L200.75 47.7253L200.436 47.7645L200.083 48.6861L199.868 48.7841L199.887 48.8234L199.809 48.8626L199.868 48.7841L199.181 47.2939L198.397 47.3136L198.417 47.3724L198.358 47.3332L198.397 47.3136L197.24 48.4508L197.495 48.8038L198.652 48.8234L198.691 49.0194L198.299 49.4116L197.456 49.5489L197.377 49.7449L197.495 49.941L198.397 50.2351L198.691 50.7449L198.142 51.392L201.632 52.4116Z" fill="#D1DADB"/>
<path d="M314.102 110.059H314.318L319.592 124.902L322.004 126.471L322.377 125.922L317.043 117.392L317.808 113.863L318.004 113.745L321.926 117.118L322.239 117L322.71 117.628V118.588L323.024 118.706L326.945 115.137L326.298 111.216L322.945 107.667L323.828 105.412L325.573 104.628L326.886 105.863L327.455 105.647V105.235V105.059L332.828 102.922L337.239 94.2747L336.357 93.7845V93.4904L336.788 93.0982V92.6669L336.22 92.0982H336.435L336.573 91.4904L333.475 87.5688L334.729 85.6081L335.984 85.0198V84.6669L335.651 84.2355L333.69 83.9806L332.671 84.8237L330.71 83.2355L330.965 82.4512H331.337L333.514 79.6473L334.259 79.961L334.082 82.6081H334.298L336.671 81.0786L337.357 81.2551L338.063 83.6669L339.396 83.863L339.828 84.2943L340.514 88.2159H340.612L342.867 87.3139L343.122 85.9414L340.024 80.8237L342.808 75.51L344.357 75.8434L345.024 75.3532L346.984 60.2943L351.024 70.0982H351.22V69.6276L351.612 69.3139L352.357 69.6669L352.455 69.4512L350.494 65.1571L350.769 64.8041H351.357L346.357 56.1375L346.181 56.2747L346.867 59.608L346.769 59.8237L343.847 56.7453H343.239L342.455 57.8237H342.337L341.769 56.7845L341.592 56.9218L341.416 57.5492H341.239L340.906 56.6277L340.318 56.3924H339.612L339.298 55.9806L341.926 47.1963L347.416 45.2355L347.553 44.6473L348.024 44.3139L349.984 44.6669V44.863L349.867 45.059V45.4904L350.298 45.6277L352.71 43.9806L351.749 43.4316L352.435 38.6081L354.396 38.059H354.69L355.161 39.4904L355.867 39.9022H356.082L357.2 37.1571L356.396 35.4708V35.3531L357.239 35.0982L356.22 49.6865L361.828 59.6669H361.945L362.906 55.5688H363.004L362.671 53.2159L363.651 52.4316L363.749 51.8826L362.631 49.3335L362.886 49.1375H363.122L363.475 48.6473L362.22 47.412L361.926 45.6865L361.279 45.3924L360.906 45.7649L359.828 41.6081L360.377 40.7061H360.612L361.141 39.863H361.435L361.73 40.3924H361.945L362.631 38.9022L363.612 38.4316L365.416 39.3139L367.867 32.1963L369.631 31.961L369.788 31.8041L368.828 29.7061L367.573 29.0394H367.475L367.337 28.608L366.533 28.0394V27.8041L365.063 27.059V26.7649L365.514 26.6277L366.22 25.7257L365.867 23.2747L364.573 22.2943L364.671 21.6277H365.024L365.573 22.2355L366.729 21.8237V21.6081L367.337 21.2159L368.161 21.8629L370.808 21.7453L371.122 21.412L369.396 18.5492L369.945 17.2355L369.2 15.2747L367.239 14.7845L365.553 15.6865V16.1375L366.122 16.7845V17.2355L365.945 17.3728H365.847L364.651 15.8433L349.592 14.9806L349.475 15.1571L351.612 17.8237V18.2747L351.239 18.5884L349.004 17.5884L348.769 17.1571V16.1767L348.024 15.9022L347.612 16.3139V17.2747L347.239 17.7061L341.533 19.2551L339.69 17.0002L337.416 16.7257L334.239 18.4316L329.828 16.8826V16.059L321.612 16.5492L321.514 16.7453L322.298 17.2355L322.122 17.51L321.788 17.6473L321.475 18.2551L321.847 18.6669H322.318L322.416 19.2159L323.063 19.9218V20.2551L318.945 21.7257L317.18 21.1963V21.2943L317.867 23.7453L317.651 23.9414L315.18 22.5885V22.4708L314.279 22.2943L314.122 22.0002L313.867 21.8826L314.024 22.0002L314.416 21.7845V21.5688L314.004 20.8434L313.435 20.6669L313.278 20.4512V20.0002L310.631 18.5492L307.886 18.8629L307.71 19.4904L308.22 20.2943V20.6277L306.769 21.2159L304.318 20.6473V20.3924L303.847 20.1178L300.553 21.1767L299.69 20.8041V21.0198L298.73 21.2943L298.2 20.7845L297.18 21.1963V21.5492L297.416 21.9218L297.847 22.0394V21.8629L298.004 21.7453L297.808 21.961L295.965 23.6277L295.788 23.4512L297.514 16.5296L295.945 14.3139L295.357 14.4512L292.847 13.314L291.318 14.0198L291.18 14.3139L291.337 14.6277L291.141 15.1375L290.612 14.9022L290.494 13.7061L290.024 13.412H289.043L288.377 12.2551L287.082 12.1963L286.612 12.5296L286.2 14.6473L287.004 16.6081L286.867 16.9218L286.043 17.0982L285.886 17.3924V17.7453L285.475 18.4708L284.494 18.9022V18.7257L284.612 18.2747L284.318 17.9806L282.357 19.0983V20.0394L278.808 23.4316V24.2551L281.024 25.8041V26.0198L280.906 26.2159L280.396 25.8434L276.828 27.2551L276.494 28.2159L277.749 30.1767L280.279 31.3335L281.141 33.1571L281.024 33.4316L280.612 33.6865V33.863V33.6669L280.377 31.9022L275.455 30.059H275.141L274.828 30.6865L274.945 30.8826H275.298L275.886 31.1767L276.004 31.5884L275.69 31.7453L274.926 31.412L274.514 31.608V31.9414L276.788 33.2551L276.69 33.3728L274.514 32.9414L273.141 30.0394H273.043V30.1375L275.18 37.9806L275.592 38.1767L277.318 37.7649L276.279 38.5688L276.18 39.5688L276.573 40.0198L276.729 40.8237L273.867 43.5688H273.612L273.965 43.8041L275.573 41.2159L271.259 30.7845L268.886 30.6276L268.651 30.863L269.533 38.7061H270.279L271.514 39.7845V40.3727L271.239 40.51L262.651 37.1767H262.337V37.2943L262.612 38.1571L264.945 39.961V40.3924L264.239 41.1375L264.063 41.0002L263.945 40.5492L263.435 40.3139L259.847 41.8826L259.573 40.8041L255.377 44.0394L255.161 44.8237L253.945 44.9218L253.435 44.3924V43.8629L254.024 43.4512V43.0198L252.494 42.0394H251.455L252.671 45.961L252.318 46.2551L250.769 46.3727L249.788 47.412V49.3728L249.377 49.5296L247.279 48.5884L246.984 48.7257L246.808 49.1767V49.6277L247.926 50.2355L248.082 50.5492L247.69 50.9022L243.298 46.0198L249.004 46.7453L250.063 45.059L249.965 44.5885L242.435 41.0786L242.279 40.4708L241.867 40.2355L239.749 40.3532L239.651 40.1375L240.828 39.4316V39.1178L239.141 38.4512L238.514 38.8433V38.3924L238.18 37.9414L237.749 38.059L237.416 38.8237L237.22 38.9414L236.161 38.0394L234.377 39.1375V38.9414H234.279L233.828 39.4512V39.6669L232.514 40.0786V40.6277L231.631 41.3139V41.7061V40.961L231.377 40.5492L231.22 40.9806L231.396 41.7061V41.51L230.671 41.7061V41.6081L229.867 41.9218L230.004 42.5296L230.2 42.6669V42.961L229.161 43.0786L228.965 42.8434L229.18 42.4708V42.5884H229.082L228.259 43.2551V43.8826L228.161 44.0198L229.906 43.8433L224.337 52.4512H223.847H223.749V52.6669V52.7649V53.059L220.984 55.0198L221.553 58.2943L221.181 59.0002V59.3139L221.514 59.4512V59.7257L221.22 60.0982V60.5492L222.651 61.7061L225.631 59.8629L227.279 64.4512V64.3139L228.631 65.0786L231.2 63.1179V62.8433L230.965 62.6865H230.847V62.5884L231.494 60.0002L232.102 59.608L232.475 58.3924L231.004 56.4316L231.18 54.1571L233.886 51.0002L234.141 49.0394L235.082 48.4708L236.73 48.7453L236.828 49.2747L234.043 52.9022L234.749 57.1571L235.161 57.3924L236.651 58.0394L240.573 57.0982L241.69 57.6669V57.7649L237.337 58.863L236.259 60.1571L235.788 60.2747L235.651 60.9414L236.906 60.4904L237.514 61.059V62.0198L237.22 62.3727L236.886 62.2747L236.416 61.7257L235.886 61.5884L234.926 62.8826L235.063 65.0198L233.102 66.059L232.984 65.8433L232.475 65.5884L229.082 67.1963L228.514 66.5885V66.2355L228.239 66.1179L226.612 66.8826L225.396 66.2943L225.141 65.7649V65.5688H225.239L226.22 66.0002L227.122 65.7453L227.455 64.1767L226.416 64.6277V65.0786L226.69 65.4904V65.6865H226.377L225.651 64.9022V64.6865L226.141 63.8237L225.828 62.2551L225.592 62.0198L224.063 62.961L224.377 67.0394L216.377 73.2747L215.514 72.961L215.259 73.1963L215.435 73.8826L215.161 74.1963L212.926 74.2943L212.749 74.5885L215.847 77.8237L215.553 80.4512L208.592 80.961L208.73 88.3531L211.886 89.5884L217.004 86.7453L217.259 84.7845L219.71 82.3531L219.867 81.2747L220.592 80.7845L222.867 81.1178L225.396 79.7649L231.69 85.2551L232.004 86.3924L231.318 87.1375L228.808 87.4316L228.69 87.6277V87.8433L230.926 89.0394L231.239 88.8826V88.059L232.886 86.2747L232.69 84.8041L233.298 84.5884L233.847 85.0394H234.043V84.3727L228.416 79.9218L228.161 78.6669L228.357 78.3923L228.926 78.1571L236.769 87.2159V87.7061L237.71 88.8433L238.651 89.0394L239.063 87.8041L239.945 87.5492V87.3531L238.122 84.7453V84.6277H238.318L238.494 84.7845L239.318 84.5688L239.514 84.1375L240.847 83.9022L241.435 84.5492L241.318 85.9806L241.533 86.2355H242.024V86.4708L241.318 86.863V87.0786L242.063 87.4708V87.8433L244.906 89.5492L246.749 88.9218L248.612 89.5884L250.18 88.8237L251.102 88.9218L249.749 94.6669L236.416 93.4708L235.788 94.7845L235.926 95.2551L235.573 95.9806L226.514 92.2943L226.377 91.7649L226.886 91.2355L227.004 90.3335L226.651 89.608L226.926 88.9414L226.73 88.7257L212.357 90.5492L211.769 90.1767L210.965 90.3727L199.984 105.588L200.2 114.883L201.475 115.706L209.318 123.157L220.671 121.196L222.984 123.412H225.631L226.455 124.902L225.455 128.824L230.141 138.628L228.514 145.53L234.533 163.177L235.808 163.863L243.651 162.196L249.279 154.981L249.396 153.745L251.984 152L251.73 147.785L257.612 142.922L256.377 132.922L268.455 117.569L268.631 115.608L268.18 115.314L261.671 116.804L257.122 111.549L258.004 111.255L261.18 114.549L274.631 107.922L276.416 104.824L275.612 103.118L273.533 102.294L272.769 100.079L269.984 102.392H268.357L267.671 100.314L267.475 100.412L267.259 100.843H266.886L264.416 96.6865L264.514 96.2159L264.69 96.059H266.082L270.945 99.7845L272.396 99.2747L273.2 99.5885L273.553 100.353L274.122 100.745L282.631 100.981L286.377 103.863H286.69L285.671 104.236V104.353L286.769 105.471L288.553 105.588L289.102 104.765H289.2L294.729 119L295.71 118.883L297.671 111.628L308.043 103.785L311.965 110.941L314.141 110.02L314.102 110.059Z" fill="#D1DADB"/>
<path d="M298.162 117.608L297.848 117.471L297.672 117.588L297.77 121.177L298.456 121.569L299.593 119.804L298.162 117.608Z" fill="#D1DADB"/>
<path d="M266.492 139.843H266.276L261.315 144.079L260.119 152.902L261.374 153.824L263.688 152.804L267.374 143.039L266.492 139.843Z" fill="#D1DADB"/>
<path d="M350.516 75.6471L351.261 77.1373L351.32 77.1962L351.947 76.6471V76.3334L351.261 75.8432L351.32 75.7256L353.869 76.0197L354.771 74.5883L355.555 74.255L355.712 73.6275L354.869 72.6471L353.751 72.706L351.418 70.9805L351.104 71.0393L351.496 74.1765L351.32 74.3138L351.084 74.353L350.516 75.6471Z" fill="#D1DADB"/>
<path d="M209.671 65.6078L209.455 66.1568L208.298 66.5294L208.514 68.4509L207.945 69.2353L208.122 70.0588L209.259 70.2353L211.416 69.2156L212.063 65.8627L211.514 65.2353L210.337 65.1372L209.671 65.6078Z" fill="#D1DADB"/>
<path d="M337.808 99.8628L337.592 99.8824L336.533 102.078L337.435 103.863L337.612 103.804L338.259 100.49L337.808 99.8628Z" fill="#D1DADB"/>
<path d="M345.89 92.3922L346.478 89.902L345.615 88.7451L345.654 88.6471L347.831 88.0393L347.87 87.9608L347.85 88.0393H347.831L347.027 88.4314L346.654 89.1177L346.988 89.7451L347.537 89.6667L347.811 89.1373L348.497 89.1177L348.792 88.2942L348.419 87.804L348.517 87.4902L348.948 87.353L348.87 87.8628L349.674 88.902L350.105 88.7844L351.105 87.3334L352.321 86.9608L352.537 87.0393L352.85 86.9216L353.282 86.0981L353.419 86.5295L353.713 86.6667L352.596 77.2746L352.164 77.2354L351.439 83.0981L350.419 84.0393L350.125 83.8824L350.105 83.6471L349.909 83.3922L349.635 83.6079L349.223 85.8236L346.909 86.2746L344.145 89.8824L344.419 90.3726L344.399 90.4118L344.439 90.451V90.3922L344.497 90.353L344.831 90.5295L344.674 90.902L344.654 90.8824V90.9216L344.694 90.902L345.145 92.1765L345.89 92.3922Z" fill="#D1DADB"/>
<path d="M224.025 19.5687L225.731 22.0001H225.849L226.535 20.7256L227.437 21.0785L227.456 21.1765L225.868 22.0197L225.849 22.0001V22.6863L226.574 23.255L226.613 23.2354L226.633 23.2746H226.927L227.005 23.3922L226.339 23.255L225.731 23.451V24.0197L227.378 25.255L227.554 25.1569L227.574 25.255H227.594L227.574 25.451L228.103 26.255L228.554 26.1765L230.143 20.3922L230.339 20.4903L230.829 23.451L231.123 23.7452L231.672 23.5099L231.966 23.7256L231.986 23.8432L232.339 23.9609L233.182 22.5295L231.496 21.1961L231.574 20.8432L230.025 19.0981L229.554 19.0001L227.182 16.6079L226.809 16.804L226.711 17.6079H226.809L226.868 18.1569L226.809 18.255L226.692 18.1765L226.672 17.6667L226.633 17.6275V17.6079L225.652 17.5883V17.6471H225.613V17.8236L225.437 17.9216L225.358 17.8628L225.437 17.7059L225.613 17.6471V17.6079L225.652 17.5883L225.633 17.5099L225.143 17.1569L223.77 17.7452L223.613 18.0785L224.025 19.5687Z" fill="#D1DADB"/>
<path d="M211.516 62.3726L211.967 64.0785L211.79 64.3922L212.045 64.7647L212.555 64.7843L212.633 64.6863L212.594 65.5098L212.927 65.9216H213.653L214.28 67.2549L213.359 67.8628L213.241 67.8432L213.084 67.9804L213.241 69.3138L212.594 69.8432L212.555 70.0589L214.143 70.8039L212.163 72.2941L212.182 72.3922L212.261 72.4706L218.457 70.8628L218.418 70.5294L218.202 70.4314L218.123 70.1373L218.574 69.4314L217.967 68.2549L217.378 68.2157V68.2353L217.339 68.2941L217.359 68.2157H217.378L214.496 63.8824L215.182 62.2157L214.869 61.7843L213.79 61.7255L213.633 61.5883L214.123 60.6863L213.869 60.4902L212.908 60.5491L211.947 61.8824L211.751 61.9608L211.516 62.3726Z" fill="#D1DADB"/>
<path d="M328.005 106.608L327.476 105.902L325.809 106.745L325.711 107.02L326.28 108.118L327.554 107.686L328.005 106.608Z" fill="#D1DADB"/>
<path d="M341.613 116.667L341.064 116.079V116H341.024L340.946 115.53L339.867 115.079L339.789 115.137L339.848 116.314L340.103 116.51L340.554 116.471L340.769 116.196L340.75 116.235L340.769 116.216L340.613 117.745L341.024 117.981L341.299 117.863L341.534 117.177L341.613 117.216V117.569V116.667Z" fill="#D1DADB"/>
<path d="M339.278 107.882L338.435 107.784L337.689 108.196L337.199 110.608L338.16 112.333L338.18 112.314L338.101 112.353L338.082 112.333L338.827 113.314L338.807 113.294L339.278 113.019L339.591 113.059L339.787 113.294H340.552L340.493 113.255H340.572L340.552 113.294L341.297 114.098L341.336 114.941L341.689 115.059L341.885 114.98L341.984 114.157L340.513 112.412L339.493 112.392L339.336 111.667L339.101 111.451L339.513 108.078L339.278 107.882Z" fill="#D1DADB"/>
<path d="M342.456 114.313L342.24 114.686L342.476 115.255L342.495 115.215V115.255L342.632 115.372V115.47L342.495 115.431V115.255H342.476L342.436 115.313L342.397 116.196L342.77 116.804L342.985 116.882L343.181 116.627L343.083 116.294L343.476 115.294L343.279 114.608L342.456 114.313Z" fill="#D1DADB"/>
</g>
<path d="M118.097 450.961H123.175L104.999 309.627H93.8613L118.097 450.961Z" fill="#139AED"/>
<path d="M286.137 450.961H281.059L299.235 309.627H310.392L286.137 450.961Z" fill="#4466C3"/>
<path d="M187.079 163.176C182.55 175.863 172.981 199.196 171.55 205.961C170.119 212.725 189.04 262.961 189.04 262.961L196.217 261.47C196.217 261.47 189.06 238.255 187.589 226.353C186.119 214.451 183.334 209.176 184.726 204.784C186.119 200.392 201.04 177.333 201.04 177.333L187.079 163.176Z" fill="#FEC4AD"/>
<path d="M233.393 189.235C233.393 189.235 254.962 151.588 263.923 137.706C270.805 127.078 280.138 89.7647 280.138 89.7647C280.138 89.7647 281.923 85.098 282.785 83.549C284.138 81.1176 286.883 76.9804 288.491 73.4118C290.099 69.8431 287.276 68.5686 287.276 68.5686L284.707 67.1176L282.923 66.3725C282.923 66.3725 283.393 63.2745 283.668 61.9216C284.055 60.5155 284.527 59.1339 285.08 57.7843L283.119 56.8823C283.119 56.8823 280.021 63.3137 278.609 66.2745C277.826 67.9259 276.935 69.5241 275.942 71.0588C275.942 71.0588 274.589 70.1176 274.432 69.2157C274.459 67.6636 274.61 66.1162 274.883 64.5882L272.217 64.7255C272.217 64.7255 269.864 72.3725 270.55 74.8039C270.916 78.6156 270.857 82.4562 270.374 86.2549C265.158 105.333 257.236 117.804 254.04 128.941L229.295 152.667C229.295 152.667 228.256 185.412 233.393 189.235Z" fill="#FEC4AD"/>
<path d="M213.743 285.372C212.743 304.471 211.9 331.47 209.822 342.941C207.253 357.863 200.194 419.059 199.684 426.784C199.175 434.51 200.194 454.039 202.253 457.118C204.312 460.196 209.449 466.392 209.449 466.392H190.998C190.998 466.392 193.057 458.667 190.998 440.157C188.939 421.647 183.939 390.51 185.998 365.451C188.057 340.392 183.41 307.843 181.88 291.706C181.67 289.398 181.598 287.081 181.665 284.765C192.292 285.118 203.018 285.274 213.743 285.372Z" fill="#FEC4AD"/>
<path d="M203.92 285.255C214.822 285.412 225.743 285.451 236.665 285.51C236.332 304.608 236.92 331.49 234.959 342.941C232.371 357.863 227.743 419.059 227.234 426.784C226.724 434.51 227.743 454.039 229.802 457.118C231.861 460.196 246.743 466.392 246.743 466.392L238.606 464.98L225.234 464.216L218.449 466.392C218.449 466.392 220.508 458.667 218.449 440.157C216.391 421.647 209.9 397.961 211.018 365.451C211.861 340.294 206.018 307.843 204.469 291.706C204.175 289.608 204.018 287.431 203.92 285.255Z" fill="#FEC4AD"/>
<path d="M237.332 263.765C238.018 266.451 238.783 269.255 239.645 272.235C247.626 300.059 235.861 344.412 235.861 344.412C226.783 347.706 224.41 349.333 208.41 347.706C200.764 347.28 193.218 345.768 185.998 343.216C185.998 343.216 179.587 330.196 179.685 288.549C179.923 280.197 181.02 271.892 182.959 263.765H237.332Z" fill="#133A50"/>
<path d="M202.139 455.843C199.571 455.333 198.669 456.353 196.355 457.902C194.886 458.838 193.194 459.366 191.453 459.431V466.392H209.355L202.139 455.843Z" fill="#133A50"/>
<path d="M229.803 457.118C229.803 457.118 229.548 459.529 225.685 460.627C224.516 460.899 223.295 460.846 222.154 460.472C221.013 460.099 219.996 459.42 219.214 458.51L218.352 466.353H223.293L225.254 464.177L227.41 466.529H248.842L229.803 457.118Z" fill="#133A50"/>
<path d="M226.943 112.53C228.59 117.387 229.509 122.462 229.669 127.588C230.159 133.353 228.532 145.059 225.355 147.804C222.179 150.549 216.002 150.569 209.885 145.843C200.081 138.137 187.473 131.49 196.512 120.49C205.551 109.49 226.943 112.53 226.943 112.53Z" fill="#FEC4AD"/>
<path d="M222.255 105.255C225.824 107.353 230.196 112.745 228.333 117.137C226.471 121.529 216.412 119.882 215.902 124.294C215.392 128.706 214.941 130.902 214.941 130.902C214.059 129.706 211.333 126.568 208.098 129.078C204.863 131.588 208.863 137.882 215.49 138.431L209.883 145.784C209.883 145.784 209.412 157.255 202.628 153.412C195.843 149.568 189.353 141.647 188.902 127.313C188.412 108.902 199.765 103.117 206.137 101.823C212.51 100.529 218.451 103.059 222.255 105.255Z" fill="#152035"/>
<path d="M219.119 146.824C219.119 154.196 218.825 157.667 221.688 159.725C218.524 160.767 215.215 161.303 211.884 161.314C208.75 161.327 205.622 161.018 202.551 160.392L206.335 140.255L223.335 141.314L219.119 146.824Z" fill="#FEC4AD"/>
<path d="M219.684 159.255C219.684 159.255 215.174 162.529 202.586 158.863C189.997 155.196 184.939 156.725 184.939 156.725C184.939 156.725 177.684 168.784 180.468 189.196C183.252 209.608 183.703 239.529 181.233 252.706C179.636 263.313 178.771 274.019 178.645 284.745C178.645 284.745 225.331 296.51 243.468 280.078C243.468 280.078 233.115 232.608 240.095 213.863C242.86 206.431 242.88 195.274 240.095 190.941C237.311 186.608 230.292 170.118 229.35 152.647C226.421 155.251 223.173 157.471 219.684 159.255Z" fill="#FF4266"/>
<path d="M189.157 130.196C191.53 140 184.059 148.647 180.354 154.196C166.883 174.294 177.53 190.706 192.844 192.079C208.53 193.471 223.491 184.236 218.746 168.059C216.648 160.824 214.314 156.961 216.393 152.373C219.981 144.412 215.216 142.373 215.491 138.412C215.491 138.412 209.726 140.588 200.452 135.432C191.177 130.275 189.157 130.196 189.157 130.196Z" fill="#152035"/>
<path d="M159.118 380.235H152V444.51H159.118V380.235Z" fill="#A6AEBA"/>
<path d="M161.293 370.196H149.842V380.235H161.293V370.196Z" fill="#D2DCEB"/>
<path d="M159.903 417.941H151.256V439.47H159.903V417.941Z" fill="#D2DCEB"/>
<path d="M161.293 439.49H149.842V449.53H161.293V439.49Z" fill="#D2DCEB"/>
<path d="M169.431 351.176H141.686V370.196H169.431V351.176Z" fill="#A6AEBA"/>
<path d="M191.433 345.49H116.943C116.131 345.49 115.473 346.149 115.473 346.961V358.255C115.473 359.067 116.131 359.726 116.943 359.726H191.433C192.246 359.726 192.904 359.067 192.904 358.255V346.961C192.904 346.149 192.246 345.49 191.433 345.49Z" fill="#A6AEBA"/>
<path d="M183.156 459.137L161.293 448.294V440.745L186.018 457.314L183.156 459.137Z" fill="#A6AEBA"/>
<path d="M191.138 461.216C191.138 462.228 190.837 463.217 190.275 464.059C189.713 464.901 188.914 465.556 187.978 465.944C187.043 466.331 186.014 466.433 185.022 466.235C184.029 466.038 183.117 465.55 182.401 464.834C181.686 464.119 181.198 463.207 181.001 462.214C180.803 461.221 180.905 460.192 181.292 459.257C181.679 458.322 182.335 457.523 183.177 456.961C184.018 456.398 185.008 456.098 186.02 456.098C186.692 456.098 187.358 456.231 187.978 456.488C188.599 456.745 189.163 457.122 189.639 457.597C190.114 458.072 190.491 458.636 190.748 459.257C191.005 459.878 191.138 460.544 191.138 461.216Z" fill="#A6AEBA"/>
<path d="M155.569 466.373C158.395 466.373 160.686 464.081 160.686 461.255C160.686 458.428 158.395 456.137 155.569 456.137C152.742 456.137 150.451 458.428 150.451 461.255C150.451 464.081 152.742 466.373 155.569 466.373Z" fill="#A6AEBA"/>
<path d="M127.98 459.137L149.843 448.294V440.745L125.117 457.314L127.98 459.137Z" fill="#A6AEBA"/>
<path d="M125.118 466.373C127.944 466.373 130.235 464.081 130.235 461.255C130.235 458.428 127.944 456.137 125.118 456.137C122.291 456.137 120 458.428 120 461.255C120 464.081 122.291 466.373 125.118 466.373Z" fill="#A6AEBA"/>
<path d="M156.944 444.51H154.18V461.196H156.944V444.51Z" fill="#A6AEBA"/>
<path d="M151.784 452V465.726H133.156C133.156 465.726 133.862 462 142.725 460.275L144.039 451.941L151.784 452Z" fill="#133A50"/>
<path d="M178.629 320.51C178.629 320.51 189.806 333.608 183.747 345.745C181.453 350.373 145.649 378.431 145.649 378.431L153.041 457.294H142.296C142.296 457.294 124.394 412.451 120.727 395.784C117.061 379.118 112.571 371.706 117.316 363.059C122.061 354.412 142.296 335.726 142.296 335.726L149.178 316.235L178.629 320.51Z" fill="#133A50"/>
<path d="M108.512 452V465.726H89.8066C89.8066 465.726 90.5125 462 99.3752 460.275L100.689 451.941L108.512 452Z" fill="#133A50"/>
<path d="M153.214 318.333C153.214 318.333 164.391 331.431 158.332 343.569C156.038 348.196 102.293 378.431 102.293 378.431L109.685 457.294H98.9395C98.9395 457.294 81.0376 412.451 77.3709 395.784C73.7042 379.118 69.1945 371.706 73.9592 363.059C78.7239 354.412 116.802 333.647 116.802 333.647L123.685 314.137L153.214 318.333Z" fill="#133A50"/>
<path d="M223.156 443.941H230.273V379.666H223.156V443.941Z" fill="#A6AEBA"/>
<path d="M221.002 379.686H232.453V369.647H221.002V379.686Z" fill="#D2DCEB"/>
<path d="M222.392 438.921H231.039V417.392H222.392V438.921Z" fill="#D2DCEB"/>
<path d="M221.002 448.98H232.453V438.941H221.002V448.98Z" fill="#D2DCEB"/>
<path d="M212.864 369.627H240.609V350.608H212.864V369.627Z" fill="#A6AEBA"/>
<path d="M190.844 359.176H265.334C266.146 359.176 266.805 358.518 266.805 357.706V346.412C266.805 345.599 266.146 344.941 265.334 344.941H190.844C190.032 344.941 189.373 345.599 189.373 346.412V357.706C189.373 358.518 190.032 359.176 190.844 359.176Z" fill="#A6AEBA"/>
<path d="M199.136 458.568L220.999 447.725V440.176L196.254 456.745L199.136 458.568Z" fill="#A6AEBA"/>
<path d="M191.139 460.706C191.143 461.717 191.446 462.704 192.011 463.543C192.575 464.383 193.376 465.035 194.311 465.42C195.247 465.804 196.275 465.903 197.267 465.703C198.258 465.503 199.168 465.014 199.882 464.298C200.596 463.581 201.081 462.669 201.277 461.677C201.473 460.685 201.37 459.657 200.983 458.723C200.595 457.789 199.939 456.991 199.098 456.429C198.256 455.868 197.268 455.568 196.256 455.568C195.583 455.568 194.916 455.701 194.293 455.96C193.671 456.218 193.106 456.597 192.631 457.074C192.155 457.551 191.779 458.118 191.523 458.741C191.267 459.364 191.136 460.032 191.139 460.706Z" fill="#A6AEBA"/>
<path d="M221.588 460.706C221.592 461.717 221.895 462.704 222.46 463.543C223.025 464.383 223.825 465.035 224.761 465.42C225.696 465.804 226.724 465.903 227.716 465.703C228.707 465.503 229.617 465.014 230.331 464.298C231.045 463.581 231.53 462.669 231.726 461.677C231.922 460.685 231.82 459.657 231.432 458.723C231.044 457.789 230.388 456.991 229.547 456.429C228.706 455.868 227.717 455.568 226.706 455.568C226.032 455.568 225.365 455.701 224.743 455.96C224.12 456.218 223.555 456.597 223.08 457.074C222.604 457.551 222.228 458.118 221.972 458.741C221.716 459.364 221.585 460.032 221.588 460.706Z" fill="#A6AEBA"/>
<path d="M254.292 458.568L232.43 447.725V440.176L257.155 456.745L254.292 458.568Z" fill="#A6AEBA"/>
<path d="M262.272 460.706C262.269 461.717 261.965 462.704 261.4 463.543C260.836 464.383 260.035 465.035 259.1 465.42C258.164 465.804 257.136 465.903 256.144 465.703C255.153 465.503 254.243 465.014 253.529 464.298C252.815 463.581 252.33 462.669 252.134 461.677C251.938 460.685 252.041 459.657 252.429 458.723C252.816 457.789 253.472 456.991 254.314 456.429C255.155 455.868 256.143 455.568 257.155 455.568C257.828 455.568 258.496 455.701 259.118 455.96C259.74 456.218 260.305 456.597 260.78 457.074C261.256 457.551 261.632 458.118 261.888 458.741C262.144 459.364 262.275 460.032 262.272 460.706Z" fill="#A6AEBA"/>
<path d="M225.352 460.627H228.117V443.941H225.352V460.627Z" fill="#A6AEBA"/>
<path d="M230.412 451.411V465.137H249.118C249.118 465.137 248.412 461.392 239.549 459.666L238.236 451.333L230.412 451.411Z" fill="#133A50"/>
<path d="M203.646 320.039C203.646 320.039 192.47 333.137 198.529 345.274C200.823 349.902 236.627 377.98 236.627 377.98L229.235 456.725H240.019C240.019 456.725 257.921 411.882 261.588 395.216C265.254 378.549 269.744 371.157 264.999 362.49C260.254 353.824 240.019 335.137 240.019 335.137L233.137 315.627L203.646 320.039Z" fill="#133A50"/>
<path d="M304.293 451.411V465.137H322.999C322.999 465.137 322.293 461.392 313.43 459.666L312.116 451.333L304.293 451.411Z" fill="#133A50"/>
<path d="M229.057 317.765C229.057 317.765 217.88 330.863 223.939 343.02C226.233 347.628 279.978 377.882 279.978 377.882L303.115 456.628H313.861C313.861 456.628 312.998 371.059 308.233 362.392C303.468 353.726 265.39 332.981 265.39 332.981L258.508 313.471L229.057 317.765Z" fill="#133A50"/>
<path d="M20.1569 281.981L21.5686 283.588C39.2157 275.941 66.9412 269.647 102.51 265.49C113.039 270.353 147.471 270.785 147.471 270.785V288.059C147.471 288.059 143.059 288.392 140.902 288.588C94.6079 292.51 73.0392 300.157 73.0392 304.02C73.0392 310.314 121.235 321.863 199.98 321.863C278.725 321.863 326.922 310.314 326.922 304.02C326.922 299.294 299.235 291.118 247.196 287.686V270.412C252.431 265.922 271.627 266.706 275.863 263.333C326.843 267.647 365.196 276.039 385 286.745H400V297.569C400 322.53 314.02 341.373 200 341.373C85.9804 341.373 0 322.53 0 297.569V286.706L20.1569 281.981Z" fill="#139AED"/>
<path d="M102.51 248.216C118.314 255.51 132.667 263.216 147.471 270.784C145.255 270.941 143.059 271.117 140.902 271.314C94.6079 275.235 73.0392 282.863 73.0392 286.745C73.0392 293.039 121.235 304.588 199.98 304.588C278.725 304.588 326.922 293.039 326.922 286.745C326.922 282.019 299.235 273.843 247.196 270.412C256.843 262.314 265.824 254.098 275.863 246.039C351.922 252.49 400 268.019 400 286.745C400 311.725 314.02 330.549 200 330.549C85.9804 330.549 2.97407e-05 311.725 2.97407e-05 286.745C-0.0391859 270 38.7059 255.667 102.51 248.216Z" fill="#1AA6FD"/>
<path d="M242.272 204.706C242.272 204.706 243.84 210.961 247.389 213.784C252.958 218.216 263.428 224.608 263.428 224.608C263.428 224.608 264.017 227.667 255.585 234C247.154 240.333 234.997 243.804 224.036 238.627C213.076 233.451 221.468 212.451 221.468 212.451C224.316 211.737 226.789 209.972 228.389 207.51C230.919 203.196 230.174 192.49 230.174 192.49L242.272 204.706Z" fill="#FEC4AD"/>
<path d="M251.116 216.804C249.8 218.959 248.062 220.825 246.007 222.291C243.951 223.756 241.621 224.791 239.155 225.334C239.155 225.334 231.822 224.432 227.586 220.608C225.032 218.297 222.931 215.531 221.39 212.451L203.743 216.804C202.057 224.589 201.073 232.51 200.802 240.471C200.351 253.373 204.724 287.961 204.724 287.961C212.89 292.567 222.133 294.922 231.508 294.784C247.449 294.667 264.547 286.334 264.547 286.334C263.928 273.665 264.013 260.973 264.802 248.314C265.516 240.022 265.516 231.684 264.802 223.392C260.48 220.73 255.893 218.522 251.116 216.804Z" fill="#E9F2F4"/>
<path d="M241.863 225.784L240.275 229.529L236.177 229.588L234.314 226.274L238.726 223.529L241.863 225.784Z" fill="#133A50"/>
<path d="M238.078 227.863L240.274 229.529L241.863 255.02L238.627 260.333L234.02 254.726L236.176 229.588L238.078 227.863Z" fill="#133A50"/>
<path d="M289.04 253.216C289.511 254.137 299.922 270.588 301.02 272.275C302.118 273.961 315.236 281.039 328.217 281.883C328.217 281.883 316.334 291.961 318.824 290.686C318.824 290.686 299.628 285.569 295.295 284.804C288.589 283.726 279.04 268.549 275.295 263.451L289.04 253.216Z" fill="#FEC4AD"/>
<path d="M332.178 291.176H348.491V290.471C348.491 285.961 344.844 283.51 340.335 283.51C335.472 283.51 332.178 285.961 332.178 290.471V291.176Z" fill="url(#paint0_linear_934_1120)"/>
<path d="M329.649 280.823C331.139 280.255 335.531 278.176 338.002 278.176C340.472 278.176 344.413 282.274 346.668 284.274C348.923 286.274 345.786 286.784 344.021 285.882C342.421 284.826 340.579 284.192 338.668 284.039C336.903 284.039 336.158 285.647 335.198 286C334.707 286.157 334.452 287.451 335.354 288.078C336.256 288.706 338.315 288.725 338.884 289.078C340.002 289.804 339.276 291.764 337.354 291.764C335.391 291.896 333.419 291.817 331.472 291.529C329.194 291.182 326.894 291.005 324.59 291C318.707 290.823 315.119 290.392 315.119 290.392L321.374 282.235C324.177 282.085 326.954 281.611 329.649 280.823Z" fill="#FEC4AD"/>
<path d="M264.761 223.392C270.134 226.137 272.781 229.804 282.585 244.118C291.016 256.49 297.957 268.608 297.957 268.608L332.173 281.235C332.173 281.235 329.742 283.686 328.154 293.274C328.154 293.274 292.016 286.059 286.604 281.745C281.193 277.431 260.859 252.196 260.859 252.196L264.761 223.392Z" fill="#133A50"/>
<path d="M252.04 216.804C256.471 218.613 260.73 220.818 264.765 223.392C264.765 223.392 264.138 258.235 264.177 272.882C264.216 287.529 264.765 315.313 264.765 315.313C264.765 315.313 246.844 317.019 236.883 314.745L239.157 254.235L252.04 216.804Z" fill="#184867"/>
<path d="M239.154 254.235L238.154 313.177C231.742 315.137 201.703 311.216 201.703 311.216C201.703 311.216 202.017 297.706 202.429 289.353C202.84 281 205.213 217.098 205.213 217.098L218.115 213.333L239.154 254.235Z" fill="#184867"/>
<path d="M257.411 173.412C259.921 176.373 260.549 183.216 259.705 186.667C258.862 190.118 257.176 202.059 254.686 206.549C253.529 208.628 251.588 212 247.352 212.235C243.217 212.284 239.216 210.764 236.156 207.98C232.431 204.157 230.647 201.784 230.274 197.628C229.901 193.471 225.078 196.373 224.98 188.255C224.882 180.137 226.941 182.059 233.235 177.706C239.529 173.353 251.352 166.275 257.411 173.412Z" fill="#FEC4AD"/>
<path d="M249.273 182.784C245.633 183.731 241.875 184.141 238.116 184C238.001 185.823 237.577 187.613 236.861 189.294C235.89 190.807 234.829 192.26 233.685 193.647C233.685 193.647 233.528 191.412 233.391 189.176C233.253 186.941 230.077 185.961 229.293 188.314C229.057 189.686 229.136 191.095 229.523 192.433C229.91 193.771 230.596 195.004 231.528 196.039C233.018 197.333 229.567 201.745 229.567 201.745C227.896 199.756 226.394 197.631 225.077 195.392C223.082 192.108 221.813 188.435 221.357 184.62C220.9 180.805 221.266 176.936 222.43 173.274C223.778 169.967 226.087 167.141 229.058 165.159C232.029 163.177 235.525 162.131 239.097 162.157C244.115 162.164 248.989 163.833 252.959 166.902C255.097 166.902 257.685 168.47 259.783 172.784C261.881 177.098 260.018 184.706 260.018 184.706C260.018 184.706 258.214 180.941 257.116 178.412C254.689 180.182 252.055 181.65 249.273 182.784Z" fill="#613531"/>
<path d="M224.216 210.373L238.726 223.529L232.471 229.98L221.393 212.451L224.216 210.373Z" fill="#AEBFDE"/>
<path d="M249.178 214.51L238.727 223.529L243.08 229.784L252.06 216.804L249.178 214.51Z" fill="#AEBFDE"/>
<path d="M239.156 254.236L221.392 212.451L218.117 213.314L219.647 230.353L226.901 232.275L223.96 238.628L239.156 254.236Z" fill="#133A50"/>
<path d="M143.939 210.235C143.939 210.235 142.371 216.51 138.822 219.333C133.253 223.765 122.782 230.157 122.782 230.157C122.782 230.157 122.194 233.196 130.625 239.549C139.057 245.902 151.214 249.353 162.174 244.176C173.135 239 164.743 218 164.743 218C161.895 217.286 159.422 215.521 157.821 213.059C155.292 208.745 156.037 198.039 156.037 198.039L143.939 210.235Z" fill="#FEC4AD"/>
<path d="M135.174 222.314C136.493 224.466 138.232 226.33 140.287 227.795C142.342 229.26 144.671 230.297 147.135 230.843C147.135 230.843 154.468 229.941 158.703 226.098C161.255 223.793 163.355 221.033 164.9 217.961L182.547 222.314C184.252 230.097 185.256 238.018 185.547 245.981C185.998 258.882 185.115 324.804 185.115 324.804C176.958 329.416 167.72 331.771 158.351 331.628C142.39 331.51 130.684 319.53 130.684 319.53C130.684 319.53 126.86 278.353 125.547 257.686C124.968 248 123.657 238.371 121.625 228.882C125.909 226.243 130.448 224.042 135.174 222.314Z" fill="#E9F2F4"/>
<path d="M144.432 231.274L146.02 235.02L150.118 235.098L151.981 231.784L147.569 229.02L144.432 231.274Z" fill="#133A50"/>
<path d="M148.216 233.373L146.02 235.02L142.922 279.961L147.471 288.059L154.236 279.961L150.118 235.098L148.216 233.373Z" fill="#133A50"/>
<path d="M162.098 215.882L147.568 229.02L153.843 235.471L164.902 217.941L162.098 215.882Z" fill="#AEBFDE"/>
<path d="M137.14 220L147.572 229.02L143.238 235.294L134.258 222.294L137.14 220Z" fill="#AEBFDE"/>
<path d="M20.1569 281.98L21.5686 283.588C39.2157 275.941 66.9412 269.647 102.51 265.49C113.039 270.353 147.471 270.784 147.471 270.784V288.059C147.471 288.059 143.059 288.392 140.902 288.588C94.6079 292.509 73.0392 300.157 73.0392 304.019C73.0392 310.313 121.235 321.862 199.98 321.862C278.725 321.862 326.922 310.313 326.922 304.019C326.922 299.294 299.235 291.117 247.196 287.686V270.411C252.431 265.921 271.627 266.706 275.863 263.333C326.843 267.647 365.196 276.039 385 286.745H400V297.568C400 322.529 314.02 341.372 200 341.372C85.9804 341.372 0 322.529 0 297.568V286.706L20.1569 281.98Z" fill="#223A7A"/>
<path d="M102.51 248.216C118.314 255.51 132.667 263.216 147.471 270.784C145.255 270.941 143.059 271.117 140.902 271.314C94.6079 275.235 73.0392 282.863 73.0392 286.745C73.0392 293.039 121.235 304.588 199.98 304.588C278.725 304.588 326.922 293.039 326.922 286.745C326.922 282.019 299.235 273.843 247.196 270.412C256.843 262.314 265.824 254.098 275.863 246.039C351.922 252.49 400 268.019 400 286.745C400 311.725 314.02 330.549 200 330.549C85.9804 330.549 2.97407e-05 311.725 2.97407e-05 286.745C-0.0391859 270 38.7059 255.667 102.51 248.216Z" fill="#4267C5"/>
<path d="M321.413 304.02L321.668 300.627L285.53 305.902L285.256 309.314L321.413 304.02Z" fill="#A6AEBA"/>
<path d="M286.981 297.902L321.667 300.627L285.53 305.902L250.961 302.314L286.981 297.902Z" fill="url(#paint1_linear_934_1120)"/>
<path d="M250.703 305.706L285.252 309.313L285.527 305.902L250.958 302.313L250.703 305.706Z" fill="#A6AEBA"/>
<path d="M256.864 286.706C260.365 287.567 263.914 288.222 267.491 288.667C268.57 288.667 272.472 288.667 274.295 288.667C279.629 288.51 285.629 288.53 286.844 289.549C288.06 290.569 292.374 295.432 294.413 297.863L294.727 298.216L294.825 298.353L295.04 298.608V298.706L295.236 298.961C296.099 300.157 295.687 301.51 293.021 300.569C292.523 300.367 292.05 300.11 291.609 299.804C291.745 300.184 291.745 300.6 291.609 300.981C291.021 302.177 289.531 302.079 288.236 300.726C287.654 300.054 287.123 299.34 286.648 298.588C286.021 297.641 285.298 296.761 284.491 295.961L284.001 296.079C284.561 296.907 285.065 297.772 285.511 298.667C285.838 299.172 286.013 299.761 286.013 300.363C286.013 300.965 285.838 301.554 285.511 302.059C285.42 302.179 285.292 302.266 285.148 302.309C285.003 302.351 284.849 302.346 284.707 302.294C283.177 300.963 281.856 299.409 280.785 297.686L280.334 297.137C279.805 297.258 279.268 297.343 278.727 297.392C279.552 298.095 280.22 298.963 280.687 299.941C281.334 301.373 280.138 302.53 278.727 301.902C277.315 301.275 273.197 298.569 271.883 299.353C270.104 300.448 268.166 301.261 266.138 301.765C265.207 301.813 264.277 301.643 263.423 301.268C262.568 300.894 261.813 300.325 261.217 299.608C259.629 298.059 254.158 297.196 253.707 297.118C254.97 293.715 256.024 290.238 256.864 286.706Z" fill="#FEC4AD"/>
<path d="M257.628 286.294L260.863 287L257.628 298.353L253.961 297.255V288.588L257.628 286.294Z" fill="#E9F2F4"/>
<path d="M205.213 217.078C197.135 219.451 194.096 224.196 193.449 251.529C193.135 266.902 200.802 286.392 204.723 288.666C212.331 293.059 247.664 298.157 253.88 299.255C253.88 299.255 255.841 288.98 257.566 286.314C257.566 286.314 219.213 275.392 217.645 272.863C217.645 272.863 213.723 246.117 214.919 240.157C218.017 224.568 208.782 216.117 205.213 217.078Z" fill="#133A50"/>
<path d="M251.354 216.412L239.158 254.235L252.06 236.353L249.746 232.47L255.511 230.412L254.452 217.568L251.354 216.412Z" fill="#133A50"/>
<path d="M289.944 218.353L383.865 212.863C385.257 212.764 386.297 214.098 386.199 215.804L382.179 287.078C382.172 287.881 381.901 288.659 381.409 289.293C380.916 289.927 380.229 290.382 379.454 290.588L284.12 304.313C283.714 304.371 283.3 304.331 282.913 304.196C282.526 304.061 282.177 303.836 281.894 303.538C281.612 303.241 281.405 302.88 281.291 302.486C281.177 302.092 281.159 301.677 281.238 301.274L286.63 222C286.66 221.098 287.009 220.235 287.616 219.567C288.224 218.899 289.048 218.469 289.944 218.353Z" fill="url(#paint2_linear_934_1120)"/>
<path d="M289.944 218.353L383.865 212.863C385.257 212.764 386.297 214.098 386.199 215.804L382.179 287.078C382.172 287.881 381.901 288.659 381.409 289.293C380.916 289.927 380.229 290.382 379.454 290.588L284.12 304.313C283.714 304.371 283.3 304.331 282.913 304.196C282.526 304.061 282.177 303.836 281.894 303.538C281.612 303.241 281.405 302.88 281.291 302.486C281.177 302.092 281.159 301.677 281.238 301.274L286.63 222C286.66 221.098 287.009 220.235 287.616 219.567C288.224 218.899 289.048 218.469 289.944 218.353Z" fill="#A6AEBA"/>
<path d="M291.86 218.235L385.449 212.765C386.821 212.765 387.88 214 387.802 215.706L384.645 286.706C384.645 287.503 384.382 288.277 383.896 288.908C383.41 289.54 382.729 289.993 381.958 290.196L287.194 303.922C286.787 303.973 286.375 303.929 285.989 303.792C285.602 303.656 285.253 303.431 284.97 303.136C284.686 302.84 284.475 302.483 284.354 302.092C284.233 301.7 284.205 301.286 284.272 300.882L288.605 221.843C288.631 220.953 288.972 220.101 289.568 219.44C290.165 218.778 290.978 218.351 291.86 218.235Z" fill="#FF4266"/>
<g style="mix-blend-mode:multiply">
<path d="M310.611 292.981C310.853 292.931 311.073 292.806 311.239 292.622C311.405 292.439 311.508 292.207 311.532 291.961L311.768 287.726C311.782 287.618 311.77 287.509 311.734 287.407C311.698 287.305 311.639 287.213 311.56 287.139C311.482 287.064 311.387 287.009 311.283 286.978C311.18 286.947 311.07 286.941 310.964 286.961C310.72 287 310.497 287.12 310.329 287.301C310.162 287.483 310.061 287.715 310.042 287.961L309.807 292.216C309.788 292.324 309.796 292.435 309.83 292.539C309.865 292.644 309.925 292.738 310.004 292.813C310.084 292.889 310.181 292.944 310.286 292.973C310.392 293.002 310.504 293.005 310.611 292.981Z" fill="#D0DAE9"/>
<path d="M307.885 293.393C308.127 293.343 308.347 293.218 308.513 293.034C308.679 292.851 308.782 292.619 308.806 292.373L309.061 288.098C309.072 287.99 309.057 287.881 309.019 287.779C308.98 287.677 308.919 287.586 308.839 287.512C308.759 287.438 308.663 287.383 308.559 287.352C308.455 287.321 308.345 287.315 308.238 287.334C307.991 287.373 307.765 287.496 307.598 287.681C307.43 287.867 307.331 288.104 307.316 288.353L307.061 292.628C307.046 292.737 307.058 292.848 307.095 292.952C307.132 293.056 307.193 293.149 307.274 293.224C307.355 293.299 307.452 293.354 307.559 293.383C307.665 293.412 307.777 293.416 307.885 293.393Z" fill="#D0DAE9"/>
<path d="M305.099 293.823C305.346 293.776 305.57 293.649 305.737 293.461C305.904 293.273 306.004 293.035 306.021 292.784L306.276 288.49C306.294 288.379 306.286 288.266 306.25 288.159C306.215 288.053 306.154 287.957 306.072 287.879C305.991 287.802 305.892 287.746 305.784 287.715C305.676 287.685 305.562 287.682 305.452 287.706C305.203 287.745 304.975 287.867 304.804 288.052C304.633 288.237 304.53 288.474 304.511 288.725L304.256 293.039C304.241 293.151 304.253 293.265 304.291 293.371C304.33 293.477 304.393 293.572 304.475 293.649C304.558 293.726 304.657 293.782 304.766 293.812C304.875 293.842 304.989 293.846 305.099 293.823Z" fill="#D0DAE9"/>
<path d="M302.257 294.255C302.509 294.206 302.739 294.076 302.913 293.885C303.086 293.694 303.193 293.453 303.217 293.196L303.472 288.883C303.482 288.771 303.467 288.659 303.427 288.554C303.388 288.449 303.325 288.355 303.244 288.278C303.163 288.2 303.066 288.142 302.959 288.108C302.853 288.073 302.74 288.063 302.629 288.079C302.379 288.127 302.151 288.254 301.979 288.441C301.806 288.628 301.697 288.865 301.668 289.118L301.413 293.471C301.403 293.582 301.418 293.693 301.457 293.797C301.497 293.902 301.56 293.995 301.642 294.071C301.723 294.147 301.821 294.203 301.928 294.235C302.034 294.267 302.147 294.274 302.257 294.255Z" fill="#D0DAE9"/>
<path d="M299.394 294.686C299.649 294.643 299.883 294.515 300.057 294.323C300.231 294.131 300.336 293.886 300.354 293.627L300.629 289.255C300.636 289.143 300.618 289.031 300.576 288.927C300.534 288.823 300.47 288.73 300.387 288.655C300.304 288.579 300.205 288.524 300.097 288.492C299.99 288.46 299.877 288.453 299.766 288.471C299.511 288.506 299.275 288.629 299.1 288.819C298.925 289.008 298.821 289.252 298.805 289.51L298.531 293.902C298.524 294.014 298.542 294.126 298.583 294.23C298.625 294.334 298.69 294.427 298.773 294.502C298.856 294.577 298.955 294.633 299.062 294.665C299.17 294.697 299.283 294.704 299.394 294.686Z" fill="#D0DAE9"/>
</g>
<path d="M316.215 308.412H329.921L349.372 302.549L335.666 302.98L316.215 308.412Z" fill="url(#paint3_linear_934_1120)"/>
<path d="M316.215 308.412H329.921L327.725 313.176L316.215 312.51V308.412Z" fill="#D0DAE9"/>
<path d="M335.003 294.549L331.513 253.373H346.611L353.14 294.039C354.042 298.745 352.572 303.725 349.65 306L346.297 308.588L327.709 313.157L328.042 308.392C333.454 306.314 335.65 299 335.003 294.549Z" fill="#D0DAE9"/>
<path d="M337.217 294.549L333.707 253.373H348.805L355.354 294.039C356.237 298.745 354.786 303.725 351.864 306L346.864 309.353L332.119 308.588L333.609 305.745C336.374 303.608 337.845 299 337.217 294.549Z" fill="#E4EFFF"/>
<path d="M336.885 300.294H355.199C354.756 302.52 353.583 304.535 351.866 306.019L346.866 309.372L327.709 313.176L333.591 305.765C335.254 304.347 336.411 302.427 336.885 300.294Z" fill="#E4EFFF"/>
<path d="M121.528 228.882C116.156 231.647 98.3909 274.118 98.3909 274.118L75.3125 299.922C77.2469 300.162 79.1001 300.844 80.7288 301.915C82.3574 302.986 83.7178 304.417 84.7047 306.098C84.7047 306.098 104.312 291.549 109.783 287.255C115.254 282.961 125.469 257.686 125.469 257.686C125.469 257.686 124.744 245.294 124.214 241.588C123.685 237.882 121.528 228.882 121.528 228.882Z" fill="#AEBFDE"/>
<path d="M202.373 478.765H207.452L210.491 337.412H199.334L202.373 478.765Z" fill="#4A64BE"/>
<path d="M41.9404 306.274L41.6855 302.882L88.9208 309.686L89.1953 313.078L41.9404 306.274Z" fill="#A6AEBA"/>
<path d="M76.3718 300.157L41.6855 302.882L88.9208 309.686L123.489 306.078L76.3718 300.157Z" fill="#D2DCEB"/>
<path d="M123.765 309.49L89.1964 313.079L88.9219 309.686L123.49 306.079L123.765 309.49Z" fill="#A6AEBA"/>
<path d="M28.528 303.098L19.3516 244.059L76.2731 252.51L85.4496 311.549L28.528 303.098Z" fill="#D2DCEB"/>
<path d="M23.4104 244.059H19.3516L76.2731 252.51L76.9594 251.117L23.4104 244.059Z" fill="url(#paint4_linear_934_1120)"/>
<path d="M88.5891 308.667L85.4519 311.549L76.2754 252.51L76.9617 251.118L88.5891 308.667Z" fill="#A6AEBA"/>
<path d="M49.2536 283.274C50.0968 287.431 52.7634 290.392 55.136 289.882C57.5085 289.372 58.8811 285.588 58.0379 281.431C57.1948 277.274 54.5281 274.333 52.1556 274.843C49.783 275.353 48.4105 279.118 49.2536 283.274Z" fill="#A6AEBA"/>
<path d="M129.429 292.118C125.929 292.985 122.38 293.64 118.801 294.078C117.743 294.078 113.821 294.078 111.997 294.078C106.664 293.941 100.664 293.961 99.4485 294.961C98.2328 295.961 93.9191 300.843 91.8799 303.275L91.5661 303.647L91.4681 303.784L91.2524 304.039V304.137C91.1795 304.216 91.1139 304.301 91.0563 304.392C90.1936 305.569 90.6053 306.922 93.272 305.98C93.7728 305.794 94.2473 305.544 94.6838 305.235C94.5474 305.609 94.5474 306.019 94.6838 306.392C95.272 307.608 96.7622 307.49 98.0563 306.157C98.6293 305.478 99.1597 304.764 99.6446 304.02C100.272 303.066 100.994 302.179 101.801 301.373L102.292 301.51C101.731 302.327 101.233 303.186 100.801 304.078C100.47 304.586 100.293 305.178 100.293 305.784C100.293 306.39 100.47 306.983 100.801 307.49C100.893 307.609 101.022 307.695 101.167 307.734C101.312 307.773 101.466 307.763 101.605 307.706C103.131 306.378 104.452 304.832 105.527 303.118L105.997 302.549C106.517 302.688 107.049 302.774 107.586 302.804C106.761 303.515 106.093 304.39 105.625 305.373C104.978 306.804 106.174 307.941 107.586 307.333C108.997 306.725 113.115 304 114.429 304.784C116.203 305.893 118.143 306.714 120.174 307.216C121.106 307.254 122.035 307.077 122.888 306.7C123.741 306.322 124.496 305.754 125.096 305.039C126.684 303.49 132.154 302.627 132.605 302.569C131.335 299.153 130.274 295.663 129.429 292.118Z" fill="#FEC4AD"/>
<path d="M128.667 291.804L125.451 292.51L128.667 303.843L132.353 302.765V294.098L128.667 291.804Z" fill="#E9F2F4"/>
<path d="M181.08 222.588C189.158 224.941 192.197 229.686 192.844 257.02C193.197 272.412 185.472 291.902 181.55 294.157C173.942 298.529 138.609 303.647 132.393 304.745C132.393 304.745 130.433 294.451 128.707 291.804C128.707 291.804 167.06 280.863 168.629 278.333C168.629 278.333 172.55 251.608 171.354 245.627C168.276 230.059 177.511 221.549 181.08 222.588Z" fill="#AEBFDE"/>
<path d="M172.391 469.627H167.313L164.273 328.274H175.43L172.391 469.627Z" fill="#4A64BE"/>
<path d="M35.4716 450.961H40.5501L22.3736 309.627H11.2363L35.4716 450.961Z" fill="#4466C3"/>
<path d="M367.51 450.961H362.432L380.608 309.627H391.745L367.51 450.961Z" fill="#4267C5"/>
<path d="M128.664 190.392C128.736 195.555 129.467 200.689 130.841 205.667C132.566 211 135.056 215.902 139.095 217.431C143.135 218.961 150.448 213.725 153.272 209.902C156.095 206.078 156.174 203.019 156.409 198.137C156.484 194.812 156 191.498 154.978 188.333C154.978 188.333 155.703 180.353 151.37 177.823C134.782 168.333 128.723 186.157 128.664 190.392Z" fill="#FEC4AD"/>
<path d="M131.629 186.51C133.805 190.157 139.472 190.431 143.139 187.275C146.805 184.118 152.178 181.765 154.394 184.824C156.237 187.333 152.433 190.314 152.433 192.961C152.437 195.077 152.555 197.191 152.786 199.294C152.786 199.294 154.452 201.373 155.531 202.53C156.609 203.686 156.609 212.333 156.609 212.333C157.819 209.345 159.194 206.425 160.727 203.588C167.433 195.745 167.531 180.882 158.766 174.941C155.448 172.788 151.618 171.553 147.667 171.364C143.716 171.174 139.785 172.037 136.276 173.863C133.296 175.432 128.256 180.647 129.668 186.333C129.511 186.412 130.884 185.294 131.629 186.51Z" fill="#613531"/>
<path d="M152.786 199.823C152.786 197.863 152.511 192.823 156.276 192.745C160.041 192.667 159.609 197.608 157.707 200.843C156.668 202.588 154.688 205.549 154.688 205.549C153.543 203.85 152.885 201.87 152.786 199.823Z" fill="#FEC4AD"/>
<path d="M237.923 188.902C237.923 189.255 238.785 189.471 238.923 189.569C239.06 189.667 238.923 190.431 239.785 192.177C240.648 193.922 241.746 195.294 247.354 194.647C250.04 194.353 250.06 191.843 250.413 190.726C250.766 189.608 251.021 189.51 251.432 189.51C251.844 189.51 252.06 189.647 252.413 190.726C252.766 191.804 253.315 194.431 256.021 194.647C258.727 194.863 259.942 193.882 260.55 192.412C261.432 189.745 261.432 189.784 261.746 189.569C262.06 189.353 262.158 188.216 262.099 187.608C262.04 187 259.531 186.824 257.923 186.824C256.214 186.709 254.499 186.874 252.844 187.314C251.883 187.804 251.903 188.235 251.432 188.235C250.962 188.235 250.962 187.804 250.001 187.314C247.295 186.856 244.547 186.691 241.805 186.824C240.178 186.824 237.883 187.039 237.883 187.686C237.841 188.091 237.855 188.5 237.923 188.902ZM253.217 188.902C253.432 188.098 254.099 188.059 256.119 187.941C258.138 187.824 260.04 187.726 260.295 188.118C260.52 188.641 260.636 189.205 260.636 189.775C260.636 190.344 260.52 190.908 260.295 191.431C259.687 193.392 259.04 194.157 256.472 194.157C255.75 194.183 255.044 193.942 254.49 193.478C253.936 193.015 253.573 192.362 253.472 191.647C253.242 190.771 253.156 189.864 253.217 188.961V188.902ZM240.374 188.118C242.467 187.77 244.598 187.71 246.707 187.941C248.668 188.059 249.413 188.098 249.629 188.902C249.715 189.823 249.642 190.751 249.413 191.647C249.138 193 248.687 194.157 245.491 194.157C241.668 194.157 241.217 193.863 240.393 191.431C240.157 190.922 240.033 190.368 240.03 189.806C240.026 189.245 240.144 188.689 240.374 188.177V188.118Z" fill="#133A50"/>
<defs>
<linearGradient id="paint0_linear_934_1120" x1="348.452" y1="287.353" x2="332.139" y2="287.353" gradientUnits="userSpaceOnUse">
<stop stop-color="white"/>
<stop offset="0.15" stop-color="#F1F6FB"/>
<stop offset="0.42" stop-color="#DEEAF7"/>
<stop offset="0.7" stop-color="#D3E3F4"/>
<stop offset="1" stop-color="#CFE1F3"/>
</linearGradient>
<linearGradient id="paint1_linear_934_1120" x1="284.308" y1="295.8" x2="282.978" y2="304.09" gradientUnits="userSpaceOnUse">
<stop stop-color="white"/>
<stop offset="0.15" stop-color="#F1F6FB"/>
<stop offset="0.42" stop-color="#DEEAF7"/>
<stop offset="0.7" stop-color="#D3E3F4"/>
<stop offset="1" stop-color="#CFE1F3"/>
</linearGradient>
<linearGradient id="paint2_linear_934_1120" x1="332.588" y1="217.435" x2="340.167" y2="302.48" gradientUnits="userSpaceOnUse">
<stop stop-color="white"/>
<stop offset="0.15" stop-color="#F1F6FB"/>
<stop offset="0.42" stop-color="#DEEAF7"/>
<stop offset="0.7" stop-color="#D3E3F4"/>
<stop offset="1" stop-color="#CFE1F3"/>
</linearGradient>
<linearGradient id="paint3_linear_934_1120" x1="349.372" y1="305.49" x2="316.195" y2="305.49" gradientUnits="userSpaceOnUse">
<stop stop-color="#C7D4E0"/>
<stop offset="0.05" stop-color="#C1CFDC"/>
<stop offset="0.27" stop-color="#A6BACD"/>
<stop offset="0.51" stop-color="#93ABC3"/>
<stop offset="0.75" stop-color="#88A2BC"/>
<stop offset="1" stop-color="#849FBA"/>
</linearGradient>
<linearGradient id="paint4_linear_934_1120" x1="48.38" y1="239.815" x2="50.1817" y2="251.059" gradientUnits="userSpaceOnUse">
<stop stop-color="white"/>
<stop offset="0.15" stop-color="#F1F6FB"/>
<stop offset="0.42" stop-color="#DEEAF7"/>
<stop offset="0.7" stop-color="#D3E3F4"/>
<stop offset="1" stop-color="#CFE1F3"/>
</linearGradient>
</defs>
</svg>
