<svg width="44" height="44" viewBox="0 0 44 44" fill="none" xmlns="http://www.w3.org/2000/svg">
<g clip-path="url(#clip0_427_70)">
<path d="M36.9132 -0.0533447H7.16869C3.24836 -0.0533447 0.0703125 3.11967 0.0703125 7.03377V36.9127C0.0703125 40.8268 3.24836 43.9998 7.16869 43.9998H36.9132C40.8335 43.9998 44.0116 40.8268 44.0116 36.9127V7.03377C44.0116 3.11967 40.8335 -0.0533447 36.9132 -0.0533447Z" fill="url(#paint0_linear_427_70)"/>
<path d="M22.3727 18.9115C23.4951 18.9115 24.3457 18.6716 24.9254 18.1805C25.5052 17.6894 25.7949 16.9742 25.7949 16.0239C25.7949 15.0856 25.5052 14.3727 24.9254 13.8854C24.3419 13.3857 23.4948 13.1359 22.3727 13.1359H18.4322V18.9118H22.3727M22.613 30.8472C24.0433 30.8472 25.1163 30.549 25.8316 29.9517C26.5593 29.3547 26.9231 28.4531 26.9231 27.2467C26.9231 26.0644 26.5655 25.1813 25.8501 24.5966C25.1348 23.9996 24.056 23.7011 22.6133 23.7011H18.4326V30.8479H22.6133M29.2356 21.0328C30.7648 21.4715 31.9486 22.282 32.7872 23.4636C33.6257 24.6453 34.0448 26.0956 34.0452 27.8139C34.0452 30.4459 33.1449 32.4078 31.3445 33.6995C29.5442 34.9911 26.8068 35.6368 23.1316 35.6368H11.3115V8.34766H22.0037C25.8388 8.34766 28.6136 8.91997 30.3275 10.0656C32.054 11.2109 32.9173 13.0451 32.9173 15.5674C32.9173 16.8957 32.6029 18.0287 31.974 18.967C31.3452 19.893 30.4294 20.5777 29.2363 21.0325" fill="white"/>
</g>
<defs>
<linearGradient id="paint0_linear_427_70" x1="2.6052" y1="41.7154" x2="41.245" y2="2.33839" gradientUnits="userSpaceOnUse">
<stop stop-color="#070135"/>
<stop offset="1" stop-color="#612D50"/>
</linearGradient>
<clipPath id="clip0_427_70">
<rect width="44" height="44" fill="white"/>
</clipPath>
</defs>
</svg>
