<svg width="54" height="54" viewBox="0 0 54 54" fill="none" xmlns="http://www.w3.org/2000/svg">
<g clip-path="url(#clip0_427_277)">
<path fill-rule="evenodd" clip-rule="evenodd" d="M11.04 54.0472L51.1053 51.3282L54.1909 10.9292L41.9828 35.6736L11.04 54.0472Z" fill="url(#paint0_linear_427_277)"/>
<path fill-rule="evenodd" clip-rule="evenodd" d="M38.3467 39.9189L51.1702 51.3008L47.7264 27.533L38.3467 39.9189Z" fill="url(#paint1_linear_427_277)"/>
<path fill-rule="evenodd" clip-rule="evenodd" d="M11.1738 53.9952L51.2173 51.3008L25.9888 49.3203L11.1738 53.9952Z" fill="url(#paint2_linear_427_277)"/>
<path fill-rule="evenodd" clip-rule="evenodd" d="M3.64355 36.3191L11.2097 54.0007L17.5119 33.354L3.64355 36.3191Z" fill="url(#paint3_linear_427_277)"/>
<path fill-rule="evenodd" clip-rule="evenodd" d="M15.9492 32.8287L38.3439 39.9872L32.545 17.2725L15.9492 32.8287Z" fill="url(#paint4_linear_427_277)"/>
<path fill-rule="evenodd" clip-rule="evenodd" d="M32.8193 18.9028L52.8752 17.5926L37.1877 4.78003L32.8193 18.9028Z" fill="url(#paint5_linear_427_277)"/>
<path fill-rule="evenodd" clip-rule="evenodd" d="M30.4912 0.143555L45.5387 0.21194L36.3122 5.31075L30.4912 0.143555Z" fill="url(#paint6_linear_427_277)"/>
<path fill-rule="evenodd" clip-rule="evenodd" d="M0.732617 27.7983L-0.00585938 43.245L3.85922 36.1959L0.732617 27.7983Z" fill="url(#paint7_linear_427_277)"/>
<path fill-rule="evenodd" clip-rule="evenodd" d="M0.524414 27.5329L3.67012 36.4558L17.3388 33.3895L32.9443 18.8864L37.3483 4.89755L30.4141 0.0012207L18.6245 4.41338C14.9098 7.86828 7.70202 14.704 7.44224 14.8326C7.18512 14.9639 2.68254 23.4736 0.524414 27.5329Z" fill="white"/>
<path fill-rule="evenodd" clip-rule="evenodd" d="M11.5706 11.5034C19.6209 3.52165 29.9989 -1.19423 33.9817 2.82405C37.9616 6.84246 33.7409 16.6077 25.6907 24.5869C17.6404 32.566 7.39094 37.5418 3.41087 33.5234C-0.571883 29.5079 3.52025 19.4827 11.5706 11.5034Z" fill="url(#paint8_linear_427_277)"/>
<path fill-rule="evenodd" clip-rule="evenodd" d="M11.209 53.9924L17.4621 33.28L38.2291 39.9516C30.7204 46.9925 22.3693 52.9447 11.209 53.9924Z" fill="url(#paint9_linear_427_277)"/>
<path fill-rule="evenodd" clip-rule="evenodd" d="M32.9717 18.8455L38.3029 39.9626C44.5752 33.3676 50.2047 26.2775 52.9618 17.5078L32.9717 18.8455Z" fill="url(#paint10_linear_427_277)"/>
<path fill-rule="evenodd" clip-rule="evenodd" d="M52.9071 17.6146C55.0407 11.1754 55.533 1.938 45.4723 0.2229L37.2168 4.78278L52.9071 17.6146Z" fill="url(#paint11_linear_427_277)"/>
<path fill-rule="evenodd" clip-rule="evenodd" d="M-0.00585938 43.1522C0.289451 53.7792 7.95683 53.9379 11.2229 54.0308L3.67864 36.4121L-0.00585938 43.1522Z" fill="#9E1209"/>
<path fill-rule="evenodd" clip-rule="evenodd" d="M33.002 18.8783C37.8216 21.8407 47.5351 27.7901 47.7321 27.8997C48.0383 28.072 51.9198 21.3538 52.8007 17.5571L33.002 18.8783Z" fill="url(#paint12_radial_427_277)"/>
<path fill-rule="evenodd" clip-rule="evenodd" d="M17.4541 33.28L25.8135 49.4079C30.7564 46.7271 34.627 43.4611 38.172 39.9625L17.4541 33.28Z" fill="url(#paint13_radial_427_277)"/>
<path fill-rule="evenodd" clip-rule="evenodd" d="M3.64623 36.4339L2.46191 50.5376C4.69671 53.5904 7.77122 53.8556 10.9963 53.6178C8.66303 47.8105 4.00191 36.1987 3.64623 36.4339Z" fill="url(#paint14_linear_427_277)"/>
<path fill-rule="evenodd" clip-rule="evenodd" d="M37.168 4.81827L53.7745 7.14884C52.8882 3.39314 50.1666 0.969624 45.5273 0.211914L37.168 4.81827Z" fill="url(#paint15_linear_427_277)"/>
</g>
<defs>
<linearGradient id="paint0_linear_427_277" x1="47.6096" y1="58.9613" x2="36.1757" y2="38.774" gradientUnits="userSpaceOnUse">
<stop stop-color="#FB7655"/>
<stop offset="0.41" stop-color="#E42B1E"/>
<stop offset="0.99001" stop-color="#990000"/>
<stop offset="1" stop-color="#990000"/>
</linearGradient>
<linearGradient id="paint1_linear_427_277" x1="53.3049" y1="42.0049" x2="38.5697" y2="32.1167" gradientUnits="userSpaceOnUse">
<stop stop-color="#871101"/>
<stop offset="0.99001" stop-color="#911209"/>
<stop offset="1" stop-color="#911209"/>
</linearGradient>
<linearGradient id="paint2_linear_427_277" x1="41.5159" y1="59.5735" x2="26.7806" y2="49.6853" gradientUnits="userSpaceOnUse">
<stop stop-color="#871101"/>
<stop offset="0.99001" stop-color="#911209"/>
<stop offset="1" stop-color="#911209"/>
</linearGradient>
<linearGradient id="paint3_linear_427_277" x1="10.5795" y1="34.8479" x2="12.8639" y2="49.6937" gradientUnits="userSpaceOnUse">
<stop stop-color="white"/>
<stop offset="0.23" stop-color="#E57252"/>
<stop offset="0.46001" stop-color="#DE3B20"/>
<stop offset="0.99001" stop-color="#A60003"/>
<stop offset="1" stop-color="#A60003"/>
</linearGradient>
<linearGradient id="paint4_linear_427_277" x1="26.2898" y1="20.9846" x2="27.1314" y2="36.136" gradientUnits="userSpaceOnUse">
<stop stop-color="white"/>
<stop offset="0.23" stop-color="#E4714E"/>
<stop offset="0.56" stop-color="#BE1A0D"/>
<stop offset="0.99001" stop-color="#A80D00"/>
<stop offset="1" stop-color="#A80D00"/>
</linearGradient>
<linearGradient id="paint5_linear_427_277" x1="40.2333" y1="6.9829" x2="42.7529" y2="17.8411" gradientUnits="userSpaceOnUse">
<stop stop-color="white"/>
<stop offset="0.17999" stop-color="#E46342"/>
<stop offset="0.39999" stop-color="#C82410"/>
<stop offset="0.99001" stop-color="#A80D00"/>
<stop offset="1" stop-color="#A80D00"/>
</linearGradient>
<linearGradient id="paint6_linear_427_277" x1="32.539" y1="3.15863" x2="43.3969" y2="-2.27031" gradientUnits="userSpaceOnUse">
<stop stop-color="white"/>
<stop offset="0.53999" stop-color="#C81F11"/>
<stop offset="0.99001" stop-color="#BF0905"/>
<stop offset="1" stop-color="#BF0905"/>
</linearGradient>
<linearGradient id="paint7_linear_427_277" x1="1.06198" y1="31.063" x2="1.95565" y2="40.0105" gradientUnits="userSpaceOnUse">
<stop stop-color="white"/>
<stop offset="0.31" stop-color="#DE4024"/>
<stop offset="0.99001" stop-color="#BF190B"/>
<stop offset="1" stop-color="#BF190B"/>
</linearGradient>
<linearGradient id="paint8_linear_427_277" x1="-5.08261" y1="42.4297" x2="36.926" y2="-0.766861" gradientUnits="userSpaceOnUse">
<stop stop-color="#BD0012"/>
<stop offset="0.07001" stop-color="white"/>
<stop offset="0.27" stop-color="#C82F1C"/>
<stop offset="0.33" stop-color="#820C01"/>
<stop offset="0.46001" stop-color="#A31601"/>
<stop offset="0.72" stop-color="#B31301"/>
<stop offset="0.99001" stop-color="#E82609"/>
<stop offset="1" stop-color="#E82609"/>
</linearGradient>
<linearGradient id="paint9_linear_427_277" x1="27.0952" y1="46.7855" x2="14.4429" y2="43.6628" gradientUnits="userSpaceOnUse">
<stop stop-color="#8C0C01"/>
<stop offset="0.53999" stop-color="#990C00"/>
<stop offset="0.99001" stop-color="#A80D0E"/>
<stop offset="1" stop-color="#A80D0E"/>
</linearGradient>
<linearGradient id="paint10_linear_427_277" x1="48.8275" y1="31.5988" x2="37.5867" y2="21.524" gradientUnits="userSpaceOnUse">
<stop stop-color="#7E110B"/>
<stop offset="0.99001" stop-color="#9E0C00"/>
<stop offset="1" stop-color="#9E0C00"/>
</linearGradient>
<linearGradient id="paint11_linear_427_277" x1="52.9571" y1="13.1138" x2="47.3577" y2="7.12772" gradientUnits="userSpaceOnUse">
<stop stop-color="#79130D"/>
<stop offset="0.99001" stop-color="#9E120B"/>
<stop offset="1" stop-color="#9E120B"/>
</linearGradient>
<radialGradient id="paint12_radial_427_277" cx="0" cy="0" r="1" gradientUnits="userSpaceOnUse" gradientTransform="translate(39.337 21.7177) scale(13.7754)">
<stop stop-color="#A80D00"/>
<stop offset="0.99001" stop-color="#7E0E08"/>
<stop offset="1" stop-color="#7E0E08"/>
</radialGradient>
<radialGradient id="paint13_radial_427_277" cx="0" cy="0" r="1" gradientUnits="userSpaceOnUse" gradientTransform="translate(20.2607 39.8695) scale(18.3126)">
<stop stop-color="#A30C00"/>
<stop offset="0.99001" stop-color="#800E08"/>
<stop offset="1" stop-color="#800E08"/>
</radialGradient>
<linearGradient id="paint14_linear_427_277" x1="7.29012" y1="53.9812" x2="2.72692" y2="38.4997" gradientUnits="userSpaceOnUse">
<stop stop-color="#8B2114"/>
<stop offset="0.42999" stop-color="#9E100A"/>
<stop offset="0.99001" stop-color="#B3100C"/>
<stop offset="1" stop-color="#B3100C"/>
</linearGradient>
<linearGradient id="paint15_linear_427_277" x1="42.2948" y1="2.68152" x2="52.5252" y2="7.19738" gradientUnits="userSpaceOnUse">
<stop stop-color="#B31000"/>
<stop offset="0.44" stop-color="#910F08"/>
<stop offset="0.99001" stop-color="#791C12"/>
<stop offset="1" stop-color="#791C12"/>
</linearGradient>
<clipPath id="clip0_427_277">
<rect width="54" height="54" fill="white"/>
</clipPath>
</defs>
</svg>
