<svg width="61" height="58" viewBox="0 0 61 58" fill="none" xmlns="http://www.w3.org/2000/svg">
<path d="M3.87324 13.5729C-1.52435 21.2083 -0.856803 31.1399 3.27054 39.2743C3.36591 39.4694 3.47081 39.6607 3.57189 39.8521L3.76262 40.2179C3.80077 40.2892 3.84273 40.3586 3.88278 40.428C3.95335 40.5593 4.02583 40.6794 4.0983 40.807L4.49311 41.4711L4.71817 41.835L5.17591 42.5385L5.37046 42.8349C5.58598 43.1501 5.80532 43.4653 6.03228 43.7729L6.16198 43.9455C6.35858 44.2113 6.55951 44.474 6.76468 44.7335L6.99355 45.0186L7.55047 45.694L7.76409 45.9454C8.01776 46.2399 8.27905 46.5326 8.54035 46.8177C8.56705 46.8458 8.5785 46.8552 8.58612 46.8665C8.84524 47.1429 9.10847 47.4156 9.37574 47.6844L9.62941 47.9358L10.2588 48.5436L10.5163 48.7875C10.7995 49.0502 11.0876 49.3079 11.3803 49.5604L12.3263 50.3484L12.6505 50.6035L13.3047 51.1063L13.6538 51.3689L14.3881 51.8867L14.7314 52.1249C14.966 52.2844 15.2044 52.4364 15.4447 52.5883L15.7537 52.7909C16.1218 53.0208 16.4938 53.2447 16.8694 53.4625L17.1784 53.6501L18.0176 54.1116C18.1702 54.1923 18.3266 54.2692 18.4811 54.3461L19.08 54.6519L19.2192 54.7176L19.4671 54.8339L20.417 55.2654L20.6172 55.3535C20.9839 55.5107 21.3533 55.6614 21.7254 55.8057L21.9924 55.9107L23.0376 56.2916L23.1711 56.3366C23.557 56.4673 23.9448 56.5924 24.3345 56.7118L24.6168 56.7943C24.9982 56.9125 25.4102 57.057 25.8184 57.1283C51.9366 61.8127 59.52 41.6887 59.52 41.6887C53.1496 49.8531 41.8395 52.0067 31.1015 49.6092C30.6953 49.5192 30.3005 49.3953 29.9057 49.279L29.6081 49.1909C29.222 49.0741 28.838 48.9509 28.4561 48.8213L28.2978 48.765C27.9579 48.6463 27.6197 48.5231 27.2832 48.3954L26.9971 48.2829C26.6284 48.1402 26.2628 47.9901 25.9004 47.8326L25.681 47.7388L24.756 47.3148L24.489 47.1892C24.2487 47.0766 24.0122 46.9509 23.7738 46.814L23.2969 46.5701C23.007 46.42 22.7248 46.2587 22.4387 46.0973L22.1488 45.9379C21.7733 45.7198 21.4013 45.4959 21.033 45.2662C20.9319 45.2025 20.8327 45.1349 20.7317 45.0693L19.9382 44.5496C19.8505 44.4933 19.7475 44.4295 19.6827 44.3733L18.9312 43.8386L18.5974 43.591L17.9203 43.0694L17.619 42.8312L16.776 42.1314C16.7453 42.1051 16.7135 42.08 16.6806 42.0564L15.7937 41.2628L15.5458 41.0265L14.9126 40.4074L14.6646 40.1635C14.3976 39.8952 14.1382 39.6251 13.9017 39.3493C13.8884 39.3362 13.875 39.323 13.8636 39.308C13.5935 39.0165 13.329 38.72 13.0701 38.4188L12.8794 38.1749L12.3072 37.4808L12.1165 37.2238L11.4566 36.3608C5.47154 28.384 3.33158 17.3568 8.08833 8.31448M20.6382 7.14197C16.7321 12.6706 16.9438 20.0864 19.9897 25.9171C20.5001 26.8998 21.0774 27.8475 21.7177 28.7536C22.3033 29.579 22.9517 30.5602 23.728 31.2224C24.0103 31.5282 24.304 31.8228 24.6053 32.1173L24.8342 32.3424C25.1257 32.622 25.424 32.8947 25.7287 33.1604C25.7421 33.1697 25.7516 33.1829 25.7669 33.1922C26.114 33.4924 26.4649 33.755 26.8216 34.0515L27.0581 34.2334C27.4159 34.5049 27.781 34.767 28.1529 35.0195L28.1853 35.042C28.3493 35.1546 28.5172 35.2577 28.685 35.3665C28.7651 35.4172 28.8414 35.4716 28.9215 35.5204C29.1881 35.6886 29.4584 35.8513 29.7321 36.0081L29.8465 36.0738L30.5637 36.449C30.6476 36.4959 30.7544 36.5353 30.8193 36.5803L31.3209 36.8355C31.3457 36.8486 31.3724 36.858 31.3972 36.8692C31.7412 37.0378 32.0897 37.1973 32.4423 37.3476L32.6712 37.4414C32.9553 37.56 33.2414 37.6739 33.5295 37.7828L33.8957 37.9142C34.1568 38.0075 34.4194 38.097 34.6834 38.1824L35.0401 38.295C35.4158 38.4076 35.803 38.5576 36.1787 38.6195C56.3443 41.9063 61 26.6131 61 26.6131C56.804 32.56 48.679 35.3928 40.0047 33.1791C39.6213 33.0799 39.2404 32.9717 38.8622 32.8546C38.7478 32.8208 38.6334 32.7833 38.5189 32.7458L37.7179 32.4756L37.3364 32.3443C37.0485 32.235 36.7624 32.1212 36.4781 32.0029L36.2455 31.9091C35.8906 31.7573 35.5396 31.5972 35.1926 31.4288L34.6643 31.1662L34.3592 31.0123C34.1347 30.8925 33.9122 30.7693 33.6916 30.6427L33.5314 30.5546C33.2585 30.3973 32.9889 30.2347 32.7227 30.0668C32.6407 30.0162 32.5606 29.9599 32.4786 29.9074L31.9541 29.5659C31.5847 29.3141 31.2222 29.0526 30.8669 28.7817L30.619 28.5941C26.8044 25.6451 23.8138 21.6154 22.3834 17.0492C20.8842 12.3123 21.2066 6.99376 23.8043 2.67894M34.7368 2.33563C32.4366 5.68431 32.2077 9.80778 33.806 13.4885C35.4902 17.3962 38.9423 20.4598 42.9724 21.9306L43.4721 22.1182L43.6934 22.1857L44.4124 22.3733C55.5471 24.4894 58.5644 16.7528 59.3712 15.614C56.7258 19.3604 52.2799 20.259 46.8251 18.9571C46.3941 18.8539 45.9211 18.7001 45.5053 18.5556C44.9716 18.3696 44.4483 18.156 43.9375 17.9159C42.968 17.4573 42.0473 16.9049 41.1891 16.2669C36.3084 12.6255 33.2758 5.65805 36.461 0" fill="#0868AC"/>
</svg>
