<svg width="497" height="285" viewBox="0 0 497 285" fill="none" xmlns="http://www.w3.org/2000/svg">
<path d="M5.54311 132.397C11.304 142.603 20.4728 151.205 27.5321 160.757C47.9347 188.358 26.7079 220.663 36.0184 250.412C44.1303 276.339 77.8716 283.288 102.535 284.342C144.094 286.117 185.605 283.454 225.673 272.17C253.478 264.337 281.317 254.085 310.622 253.463C340.581 252.829 368.763 264.872 397.701 270.568C429.481 276.822 467.497 270.031 475.154 234.493C479.903 212.476 467.124 192.201 465.928 170.524C464.344 141.827 492.913 126.078 496.612 99.251C498.943 82.3352 490.232 67.2233 478.87 54.9846C466.881 42.0715 450.759 30.6626 432.262 29.6021C412.927 28.4927 395.673 38.659 377.602 43.5137C326.826 57.1435 298.006 11.659 251.269 5.32226C230.195 2.46007 204.295 3.81795 185.156 13.6426C167.361 22.7794 158.726 43.0721 138.767 49.0317C117.642 55.3396 98.3096 42.7327 78.235 38.7056C57.4624 34.5388 37.811 41.9361 24.8201 58.1597C12.1903 73.8884 -1.44313 94.6071 0.1234 115.377C0.597569 121.683 2.6427 127.256 5.54311 132.397Z" fill="url(#paint0_linear_1368_2)"/>
<g clip-path="url(#clip0_1368_2)">
<path d="M169.542 232.366L167.967 233.563C149.467 209.06 128.594 186.438 105.649 166.024L106.955 164.541C130.002 185.037 150.966 207.756 169.542 232.366Z" fill="#D5E2FB"/>
<path d="M123.184 181.069C114.961 177.799 107.282 173.305 100.407 167.74C92.9639 161.629 85.5387 153.303 76.9326 141.206C76.9326 141.206 79.0081 141.939 82.3897 143.422C86.9289 145.461 91.3019 147.851 95.4688 150.569C105.578 156.93 117.297 167.4 123.184 181.069Z" fill="#D5E2FB"/>
<path d="M127.657 185.518C121.843 180.836 112.879 180.676 104.684 181.944C96.4895 183.213 88.9033 185.803 85.3428 186.232C90.5101 188.951 95.9813 191.05 101.642 192.486C110.553 194.559 121.145 194.827 127.657 185.518Z" fill="#D5E2FB"/>
<path d="M128.963 186.5C123.596 178.246 122.164 168.883 121.932 160.039C121.699 151.194 122.701 142.939 122.701 137.454C123.994 139.079 125.189 140.78 126.279 142.546C128.824 146.558 130.946 150.821 132.613 155.268C136.317 165.399 137.444 177.906 128.963 186.5Z" fill="#D5E2FB"/>
<path d="M141.112 199.704C134.527 192.432 123.828 193.165 115.132 195.827C109.612 197.544 104.328 199.945 99.4053 202.974C100.876 203.647 102.381 204.243 103.914 204.761C107.474 205.968 111.131 206.865 114.846 207.441C123.416 208.745 133.901 208.227 141.112 199.704Z" fill="#D5E2FB"/>
<path d="M140.682 199.222C137.104 191.682 136.209 182.087 137.658 172.742C139.108 163.398 143.026 154.285 149.36 148.121C150.816 152.11 151.813 156.253 152.33 160.467C153.242 167.507 152.831 176.28 148.358 182.98C145.441 187.041 143.037 191.446 141.201 196.095C140.324 198.472 140.682 199.222 140.682 199.222Z" fill="#D5E2FB"/>
<path d="M150.559 210.353C146.641 205.761 138.912 204.689 131.558 207.28C127.471 208.752 123.768 211.122 120.721 214.215C117.673 217.307 115.36 221.043 113.952 225.148C116.913 225.082 119.858 224.699 122.737 224.004C127.622 222.807 133.58 220.431 137.48 215.231C141.381 210.032 144.494 208.924 146.838 208.96C148.203 208.979 149.518 209.472 150.559 210.353Z" fill="#D5E2FB"/>
<path d="M149.324 208.906C145.406 204.368 145.191 196.649 148.251 189.413C149.915 185.359 152.574 181.788 155.982 179.028C159.389 176.268 163.437 174.407 167.753 173.618C167.668 176.734 167.156 179.824 166.232 182.802C164.712 188.553 161.009 193.488 155.909 196.56C150.362 199.597 148.752 202.706 148.483 205.029C148.324 206.379 148.62 207.743 149.324 208.906Z" fill="#D5E2FB"/>
<path d="M125.206 222.164C125.206 222.164 123.095 190.092 103.002 177.263C103.002 177.263 102.465 201.598 125.206 222.164Z" fill="#4849C8"/>
<path d="M106.938 211.497C106.938 211.497 99.4233 183.713 79.5273 175.976C79.5273 175.976 83.3384 197.364 106.938 211.497Z" fill="#4849C8"/>
<path d="M86.8094 204.225C86.8094 204.225 78.0244 181.229 60.4365 176.334C60.4365 176.334 65.5179 194.219 86.8094 204.225Z" fill="#4849C8"/>
<path d="M83.3926 203.385C83.3926 203.385 58.7731 203.028 47.7158 217.536C47.7158 217.554 66.2341 219.466 83.3926 203.385Z" fill="#4849C8"/>
<path d="M103.986 211.497C103.986 211.497 75.9489 211.086 63.3887 227.578C63.3887 227.595 84.4476 229.757 103.986 211.497Z" fill="#4849C8"/>
<path d="M123.238 220.359C123.238 220.359 93.054 219.912 79.5098 237.708C79.5098 237.708 102.197 240.031 123.238 220.359Z" fill="#4849C8"/>
<path d="M144.726 236.583C144.726 236.583 147.302 200.026 126.601 182.427C126.601 182.427 122.289 209.764 144.726 236.583Z" fill="#4849C8"/>
<path d="M142.776 234.242C142.776 234.242 108.781 229.078 90.6924 247.071C90.6924 247.071 115.956 253.217 142.776 234.242Z" fill="#4849C8"/>
<path d="M72.0665 200.937C72.0665 200.937 54.407 186.465 38.0716 190.61C38 190.61 50.3277 202.688 72.0665 200.937Z" fill="#4849C8"/>
<path d="M66.5199 198.275C88.709 202.18 109.893 210.473 128.829 222.666C147.765 234.859 164.07 250.707 176.789 269.28C177.88 270.888 175.536 272.854 174.427 271.228C161.967 252.963 145.978 237.369 127.398 225.363C108.818 213.356 88.0228 205.179 66.2337 201.312C64.3192 200.973 64.5875 197.935 66.5199 198.275Z" fill="#4849C8"/>
<path d="M300.297 225.844L299.062 224.058C326.453 204.851 351.887 183.001 374.996 158.824L376.571 160.307C353.363 184.6 327.815 206.552 300.297 225.844Z" fill="#D5E2FB"/>
<path d="M357.945 177.37C361.813 168.554 366.995 160.373 373.315 153.106C380.257 145.244 389.614 137.49 403.105 128.574C403.105 128.574 402.246 130.825 400.493 134.435C398.126 139.294 395.38 143.96 392.28 148.389C384.855 159.127 373.064 171.474 357.945 177.37Z" fill="#D5E2FB"/>
<path d="M352.918 182.087C358.285 175.923 358.751 166.203 357.695 157.233C356.639 148.264 354.116 139.956 353.741 136.061C350.583 141.572 348.09 147.437 346.316 153.535C343.721 163.13 343.023 174.636 352.918 182.087Z" fill="#D5E2FB"/>
<path d="M351.809 183.445C361.005 177.978 371.257 176.709 380.919 176.798C390.581 176.888 399.527 178.263 405.503 178.478C403.673 179.772 401.773 180.965 399.813 182.051C395.346 184.658 390.622 186.796 385.714 188.43C374.567 192.218 360.862 192.986 351.809 183.445Z" fill="#D5E2FB"/>
<path d="M336.994 196.238C345.17 189.341 344.777 177.692 342.183 168.133C340.522 162.071 338.119 156.238 335.026 150.765C334.26 152.336 333.58 153.947 332.986 155.59C331.537 159.417 330.423 163.362 329.658 167.382C327.851 176.584 327.94 188.001 336.994 196.238Z" fill="#D5E2FB"/>
<path d="M337.495 195.702C345.869 192.039 356.335 191.485 366.462 193.415C376.589 195.345 386.412 199.883 392.871 207.048C388.472 208.488 383.921 209.417 379.309 209.817C371.597 210.532 362.061 209.817 354.904 204.654C347.747 199.49 343.453 197.239 340.895 196.31C338.336 195.38 337.495 195.702 337.495 195.702Z" fill="#D5E2FB"/>
<path d="M325.006 206.029C330.159 201.938 331.609 193.522 329.068 185.482C327.603 180.977 325.143 176.859 321.87 173.433C318.596 170.006 314.593 167.358 310.156 165.685C310.12 168.907 310.432 172.124 311.086 175.28C312.196 180.64 314.665 187.197 320.032 191.628C325.4 196.059 326.653 199.49 326.509 202.045C326.477 203.505 325.947 204.911 325.006 206.029Z" fill="#D5E2FB"/>
<path d="M326.617 204.743C331.716 200.651 340.144 200.705 347.909 204.314C352.266 206.271 356.059 209.292 358.939 213.098C361.819 216.905 363.693 221.374 364.387 226.095C360.996 225.883 357.649 225.209 354.439 224.093C349.072 222.307 343.024 218.733 339.839 212.354C336.655 205.976 333.398 204.332 330.893 203.975C329.422 203.747 327.917 204.018 326.617 204.743Z" fill="#D5E2FB"/>
<path d="M371.688 212.319C371.688 212.319 372.761 179.764 392.693 166.078C392.693 165.988 394.035 190.574 371.688 212.319Z" fill="#9DBFF9"/>
<path d="M389.848 200.812C389.848 200.812 396.521 172.421 416.435 163.898C416.435 163.898 413.286 185.714 389.848 200.812Z" fill="#9DBFF9"/>
<path d="M410.012 192.772C410.012 192.772 418.135 169.169 435.794 163.648C435.794 163.648 431.25 181.944 410.012 192.772Z" fill="#9DBFF9"/>
<path d="M413.43 191.825C413.43 191.825 438.371 190.646 450.055 204.993C450.055 204.993 431.358 207.53 413.43 191.825Z" fill="#9DBFF9"/>
<path d="M392.836 200.705C392.836 200.705 421.231 199.365 434.524 215.678C434.524 215.678 413.251 218.572 392.836 200.705Z" fill="#9DBFF9"/>
<path d="M373.619 210.335C373.619 210.335 404.197 208.888 418.51 226.416C418.51 226.452 395.591 229.579 373.619 210.335Z" fill="#9DBFF9"/>
<path d="M352.399 227.506C352.399 227.506 348.552 190.556 368.949 172.01C368.949 172.01 374.281 199.561 352.399 227.506Z" fill="#9DBFF9"/>
<path d="M354.295 225.058C354.295 225.058 388.612 218.68 407.506 236.333C407.506 236.333 382.099 243.39 354.295 225.058Z" fill="#9DBFF9"/>
<path d="M424.826 188.966C424.826 188.966 442.235 173.707 459 177.352C459 177.352 446.923 190.002 424.826 188.966Z" fill="#9DBFF9"/>
<path d="M430.355 186.071C408.001 190.769 386.813 199.879 368.034 212.867C349.254 225.855 333.263 242.459 320.999 261.704C319.943 263.366 322.394 265.278 323.45 263.598C335.473 244.669 351.164 228.33 369.599 215.542C388.034 202.753 408.843 193.772 430.802 189.127C432.735 188.734 432.359 185.661 430.409 186.071H430.355Z" fill="#9DBFF9"/>
<path d="M375.892 85.4599C374.483 83.7824 373.711 81.6635 373.709 79.4743C373.718 76.9847 374.713 74.5996 376.476 72.8392C378.239 71.0787 380.627 70.0855 383.12 70.0761H403.499C405.922 70.1816 408.21 71.217 409.887 72.9663C411.564 74.7156 412.5 77.0438 412.5 79.4654C412.5 81.8871 411.564 84.2153 409.887 85.9645C408.21 87.7138 405.922 88.7492 403.499 88.8547H383.12C381.659 88.8561 380.219 88.5133 378.916 87.8542L374.21 90.4449L375.892 85.4599Z" fill="#D34564"/>
<path d="M388.326 79.4386C388.326 79.845 388.205 80.2423 387.979 80.5802C387.753 80.9181 387.432 81.1814 387.056 81.337C386.68 81.4925 386.266 81.5332 385.867 81.4539C385.468 81.3746 385.101 81.1789 384.814 80.8916C384.526 80.6042 384.33 80.2381 384.25 79.8395C384.171 79.4409 384.212 79.0277 384.368 78.6523C384.523 78.2768 384.787 77.9559 385.125 77.7302C385.464 77.5044 385.862 77.3839 386.268 77.3839C386.814 77.3839 387.338 77.6004 387.723 77.9857C388.109 78.371 388.326 78.8937 388.326 79.4386Z" fill="white"/>
<path d="M395.357 79.4386C395.357 79.845 395.237 80.2423 395.011 80.5802C394.785 80.9181 394.463 81.1814 394.087 81.337C393.711 81.4925 393.298 81.5332 392.898 81.4539C392.499 81.3746 392.133 81.1789 391.845 80.8916C391.557 80.6042 391.361 80.2381 391.282 79.8395C391.202 79.4409 391.243 79.0277 391.399 78.6523C391.555 78.2768 391.818 77.9559 392.157 77.7302C392.495 77.5044 392.893 77.3839 393.3 77.3839C393.845 77.3839 394.369 77.6004 394.755 77.9857C395.141 78.371 395.357 78.8937 395.357 79.4386Z" fill="white"/>
<path d="M402.389 79.4386C402.389 79.845 402.268 80.2423 402.042 80.5802C401.816 80.9181 401.494 81.1814 401.118 81.337C400.742 81.4925 400.329 81.5332 399.93 81.4539C399.531 81.3746 399.164 81.1789 398.876 80.8916C398.588 80.6042 398.392 80.2381 398.313 79.8395C398.234 79.4409 398.274 79.0277 398.43 78.6523C398.586 78.2768 398.85 77.9559 399.188 77.7302C399.526 77.5044 399.924 77.3839 400.331 77.3839C400.877 77.3839 401.4 77.6004 401.786 77.9857C402.172 78.371 402.389 78.8937 402.389 79.4386Z" fill="white"/>
<path d="M216.276 24.7107C216.276 24.7107 88.3304 154.393 53.1725 93.1429C53.1725 93.1429 34.4038 58.3014 51.0076 58.4086C71.7624 58.5516 74.2673 108.991 90.8353 141.135C120.375 198.614 228.049 170.116 228.049 170.116" stroke="#9DBFF9" stroke-width="0.44" stroke-miterlimit="10" stroke-dasharray="2.34 2.34"/>
<path d="M231.199 4.91355C231.306 4.77061 221.841 7.98675 221.841 7.98675L220.768 22.4058L227.244 12.9182L238.409 13.3648L256.963 2.64438L231.199 4.91355Z" fill="#2E2F78"/>
<path d="M256.963 2.57291L220.768 22.4058L227.244 12.936L256.963 2.57291Z" fill="#1B1D4F"/>
<path d="M256.963 2.57291L215.328 1.82248L221.841 7.98674L256.963 2.57291L227.244 12.936L238.23 23.7994L256.963 2.57291Z" fill="#4849C8"/>
<path d="M143.832 23.8541C146.353 13.5187 140.007 3.09931 129.657 0.581726C119.308 -1.93586 108.874 4.40172 106.353 14.7371C103.832 25.0725 110.178 35.4919 120.528 38.0095C130.877 40.5271 141.311 34.1895 143.832 23.8541Z" fill="#D34564"/>
<path d="M120.393 11.721V26.8012L133.132 19.2611L120.393 11.721Z" fill="white"/>
<path d="M427.886 0.839783H326.724C324.066 0.839783 321.911 2.99165 321.911 5.64612V32.215C321.911 34.8695 324.066 37.0213 326.724 37.0213H427.886C430.544 37.0213 432.699 34.8695 432.699 32.215V5.64612C432.699 2.99165 430.544 0.839783 427.886 0.839783Z" fill="#9DBFF9"/>
<path d="M330.303 33.2155L334.901 42.1493C335.032 42.3993 335.226 42.6101 335.465 42.7602C335.705 42.9102 335.979 42.9941 336.261 43.0032C336.544 43.0122 336.823 42.9463 337.072 42.8119C337.32 42.6776 337.528 42.4797 337.674 42.2386L343.167 33.3049L330.303 33.2155Z" fill="#9DBFF9"/>
<path d="M349.787 17.4029C349.79 19.3798 349.206 21.3133 348.108 22.9586C347.011 24.6038 345.449 25.8867 343.621 26.6449C341.792 27.4031 339.78 27.6024 337.838 27.2176C335.896 26.8327 334.113 25.8811 332.713 24.4832C331.313 23.0853 330.36 21.304 329.974 19.3649C329.589 17.4258 329.789 15.416 330.548 13.5903C331.307 11.7645 332.592 10.2048 334.239 9.10865C335.887 8.01253 337.823 7.42931 339.803 7.43285C341.114 7.43285 342.412 7.69071 343.623 8.19175C344.835 8.6928 345.935 9.42719 346.862 10.353C347.789 11.2788 348.525 12.3779 349.027 13.5875C349.528 14.7971 349.787 16.0936 349.787 17.4029Z" fill="white"/>
<path d="M358.555 11.9533H418.225" stroke="white" stroke-width="1.7" stroke-linecap="round" stroke-linejoin="round"/>
<path d="M358.555 23.1026H396.361" stroke="white" stroke-width="1.7" stroke-linecap="round" stroke-linejoin="round"/>
<path d="M319.674 53.6202H166.178C163.021 53.6249 159.995 54.8807 157.764 57.1118C155.533 59.343 154.28 62.367 154.28 65.5199V266.01C154.28 269.163 155.533 272.187 157.764 274.418C159.995 276.65 163.021 277.905 166.178 277.91H319.674C321.239 277.91 322.789 277.602 324.234 277.004C325.68 276.406 326.994 275.53 328.1 274.425C329.207 273.32 330.085 272.008 330.683 270.564C331.282 269.12 331.59 267.573 331.59 266.01V65.5199C331.59 62.3639 330.335 59.3372 328.1 57.1055C325.866 54.8739 322.835 53.6202 319.674 53.6202Z" fill="#AAACE8"/>
<path d="M157.876 53.6023H311.372C314.528 53.6023 317.554 54.8541 319.786 57.0824C322.017 59.3107 323.271 62.3329 323.271 65.4841V216.196H145.889V65.5199C145.884 63.949 146.191 62.3927 146.793 60.9412C147.394 59.4896 148.278 58.1715 149.392 57.0632C150.507 55.9549 151.831 55.0784 153.287 54.4843C154.744 53.8903 156.303 53.5905 157.876 53.6023Z" fill="#4849C8"/>
<path d="M311.283 277.91H157.787C154.632 277.91 151.605 276.658 149.374 274.43C147.143 272.202 145.889 269.18 145.889 266.028V216.178L323.199 216.178V266.028C323.199 267.59 322.891 269.137 322.292 270.579C321.693 272.022 320.815 273.333 319.708 274.436C318.601 275.54 317.287 276.415 315.842 277.011C314.396 277.607 312.847 277.912 311.283 277.91Z" fill="white"/>
<path d="M293.731 241.711H173.389C172.44 241.711 171.53 241.334 170.859 240.664C170.188 239.994 169.811 239.085 169.811 238.137C169.811 237.189 170.188 236.281 170.859 235.61C171.53 234.94 172.44 234.564 173.389 234.564H293.731C294.68 234.564 295.59 234.94 296.261 235.61C296.932 236.281 297.309 237.189 297.309 238.137C297.309 239.085 296.932 239.994 296.261 240.664C295.59 241.334 294.68 241.711 293.731 241.711Z" fill="#D6E3FB"/>
<path d="M227.673 260.382H173.389C172.44 260.382 171.53 260.006 170.859 259.335C170.188 258.665 169.811 257.756 169.811 256.809C169.811 255.861 170.188 254.952 170.859 254.282C171.53 253.612 172.44 253.235 173.389 253.235H227.673C228.622 253.235 229.533 253.612 230.204 254.282C230.875 254.952 231.252 255.861 231.252 256.809C231.252 257.756 230.875 258.665 230.204 259.335C229.533 260.006 228.622 260.382 227.673 260.382Z" fill="#D6E3FB"/>
<path d="M295.86 80.743H176.878V150.176H295.86V80.743Z" fill="white"/>
<path d="M295.86 80.743H176.878V150.176H295.86V80.743Z" stroke="#B0CBF9" stroke-width="2.53" stroke-linecap="round" stroke-linejoin="round"/>
<path d="M222.485 134.381L246.819 102.827L272.529 134.381H222.485Z" fill="#B0CBF9"/>
<path d="M202.285 134.381L217.959 116.246L233.077 134.381H202.285Z" fill="#4849C8"/>
<path d="M217.923 111.457C221.697 111.457 224.757 108.401 224.757 104.632C224.757 100.862 221.697 97.8063 217.923 97.8063C214.148 97.8063 211.088 100.862 211.088 104.632C211.088 108.401 214.148 111.457 217.923 111.457Z" fill="#D34564"/>
<path d="M175.321 170.098H296.719" stroke="white" stroke-width="0.55" stroke-miterlimit="10"/>
<path d="M175.321 195.505H254.834" stroke="white" stroke-width="0.55" stroke-miterlimit="10"/>
<path d="M175.321 182.677H194.484" stroke="white" stroke-width="0.55" stroke-miterlimit="10"/>
<path d="M337.621 250.287L338.855 267.333L325.884 267.065L324.613 249.322L337.621 250.287Z" fill="#E29C73"/>
<path d="M338.783 266.118L325.507 265.85L320.802 269.637C320.452 269.919 320.059 270.142 319.639 270.299L312.786 272.8C312.155 273.028 311.607 273.439 311.211 273.98C310.816 274.521 310.592 275.168 310.567 275.837L341.556 275.587L338.783 266.118Z" fill="#202020"/>
<path d="M341.503 275.659L341.825 278.428L310.585 278.41L310.514 275.909L341.503 275.659Z" fill="#6D6D6D"/>
<path d="M323.468 267.458L326.187 269.28" stroke="#FAFFFF" stroke-width="0.53" stroke-linecap="round" stroke-linejoin="round"/>
<path d="M321.356 269.137L324.094 270.96" stroke="#FAFFFF" stroke-width="0.53" stroke-linecap="round" stroke-linejoin="round"/>
<path d="M311.892 147.067L322.519 260.722H341.396L334.471 143.994L311.892 147.067Z" fill="#201D53"/>
<path d="M366.139 248.411L370.791 267.333L357.802 267.065L354.08 249.322L366.139 248.411Z" fill="#E29C73"/>
<path d="M370.685 266.118L357.391 265.921L352.703 269.709C352.351 269.987 351.959 270.21 351.54 270.37L344.688 272.872C344.057 273.102 343.509 273.514 343.111 274.054C342.714 274.594 342.484 275.239 342.451 275.909L373.44 275.659L370.685 266.118Z" fill="#202020"/>
<path d="M373.44 275.659L373.762 278.428L342.523 278.41L342.451 275.909L373.44 275.659Z" fill="#6D6D6D"/>
<path d="M355.387 267.458L358.124 269.28" stroke="#FAFFFF" stroke-width="0.53" stroke-linecap="round" stroke-linejoin="round"/>
<path d="M353.33 269.191L356.05 270.995" stroke="#FAFFFF" stroke-width="0.53" stroke-linecap="round" stroke-linejoin="round"/>
<path d="M350.681 143.994L371.382 260.722H352.846L320.032 143.994H350.681Z" fill="#2E2F78"/>
<path d="M316.24 99.7539C316.24 99.7539 312.125 140.849 310.031 160.503C310.031 160.503 326.742 171.92 355.978 160.146L353.097 99.7539C350.67 97.7572 347.652 96.6144 344.509 96.502H326.617C326.617 96.502 318.619 96.4663 316.24 99.7539Z" fill="#D34564"/>
<path d="M354.367 125.501L350.127 122.052L351.862 144.458L355.047 140.152L354.367 125.501Z" fill="#B2314D"/>
<path d="M296.2 112.261L271.491 79.9925L264.889 83.6732L282.172 115.352C282.317 116.302 282.651 117.213 283.156 118.031C283.661 118.849 284.326 119.556 285.111 120.112C285.896 120.667 286.785 121.059 287.725 121.263C288.665 121.468 289.636 121.481 290.582 121.302C294.84 120.605 297.47 117.246 296.2 112.261Z" fill="#E59C70"/>
<path d="M258.108 76.5262C257.198 78.3653 257.043 80.4861 257.674 82.4379C258.306 84.3897 259.674 86.0187 261.489 86.9787C262.386 87.4352 263.365 87.7082 264.368 87.7816C265.372 87.8549 266.38 87.7272 267.333 87.406C268.287 87.0847 269.166 86.5763 269.92 85.9108C270.674 85.2452 271.287 84.4358 271.724 83.5303C272.638 81.692 272.796 79.5696 272.164 77.6165C271.532 75.6633 270.16 74.0345 268.342 73.0778C267.446 72.6188 266.467 72.3438 265.463 72.2692C264.459 72.1946 263.45 72.3217 262.496 72.6432C261.541 72.9647 260.661 73.474 259.908 74.1409C259.154 74.8079 258.542 75.619 258.108 76.5262Z" fill="#E59C70"/>
<path d="M267.054 72.5597C266.803 72.5597 257.965 68.9862 254.529 67.6104C254.194 67.4781 253.821 67.4805 253.487 67.6171C253.154 67.7536 252.886 68.0137 252.74 68.3429C252.593 68.66 252.572 69.021 252.682 69.3529C252.791 69.6847 253.023 69.9624 253.331 70.1297L263.368 75.7937L267.054 72.5597Z" fill="#E59C70"/>
<path d="M304.538 120.301C299.963 120.354 295.4 120.754 290.886 121.499C289.178 121.83 287.407 121.528 285.906 120.65C284.404 119.772 283.274 118.378 282.727 116.728C282.143 114.985 282.254 113.084 283.037 111.42C283.82 109.756 285.215 108.458 286.932 107.794L307.794 101.648L304.538 120.301Z" fill="#E59C70"/>
<path d="M321.446 97.0202L305.343 100.862C305.343 100.862 302.033 105.186 301.765 121.391L317.402 119.801L321.446 97.0202Z" fill="#D34564"/>
<path d="M314.182 120.141L314.879 113.333L308.957 120.677L314.182 120.141Z" fill="#B2314D"/>
<path d="M368.645 112.404C368.645 112.726 375.569 119.015 378.629 122.178C379.837 123.429 380.547 125.077 380.626 126.814C380.705 128.55 380.148 130.256 379.058 131.612C377.907 133.038 376.252 133.968 374.434 134.211C372.616 134.453 370.775 133.99 369.289 132.916L351.308 119.783L368.645 112.404Z" fill="#E59C70"/>
<path d="M346.906 96.6628C357.277 98.9197 366.381 105.074 372.331 113.851L357.713 128.235L347.694 120.051L346.906 96.6628Z" fill="#D34564"/>
<path d="M359.198 158.002C359.198 159.56 358.735 161.084 357.868 162.379C357.001 163.675 355.769 164.685 354.327 165.281C352.885 165.878 351.299 166.034 349.768 165.73C348.237 165.426 346.831 164.675 345.728 163.573C344.625 162.471 343.873 161.067 343.569 159.539C343.264 158.01 343.42 156.426 344.018 154.986C344.615 153.547 345.626 152.316 346.924 151.45C348.221 150.584 349.747 150.122 351.307 150.122C352.344 150.12 353.371 150.322 354.33 150.717C355.288 151.112 356.159 151.693 356.892 152.425C357.625 153.157 358.206 154.027 358.602 154.984C358.998 155.941 359.2 156.966 359.198 158.002Z" fill="#E59C70"/>
<path d="M340.948 96.4305V82.8156L332.002 80.1891L328.012 87.9078V96.4305H326.581C326.581 96.4305 321.428 102.791 331.537 102.952C342.469 103.131 344.509 96.4305 344.509 96.4305H340.948Z" fill="#E59C70"/>
<path d="M328.137 86.4248L328.102 92.0888L332.217 85.0847L328.137 86.4248Z" fill="#202020"/>
<path d="M324.094 65.5556L319.853 84.8882C319.711 85.5394 319.775 86.2186 320.034 86.8326C320.293 87.4467 320.736 87.9658 321.303 88.3187C322.883 88.9123 324.588 89.0967 326.259 88.8547C326.259 88.8547 332.932 88.7297 334.525 80.1891L336.511 63.0721L324.094 65.5556Z" fill="#E59C70"/>
<path d="M323.217 72.5775L319.102 76.9729C319.006 77.1045 318.944 77.2573 318.921 77.4181C318.898 77.5789 318.915 77.743 318.969 77.896C319.024 78.0491 319.115 78.1865 319.235 78.2965C319.355 78.4065 319.499 78.4858 319.657 78.5274L322.627 79.2599L323.217 72.5775Z" fill="#E59C70"/>
<path d="M332.056 78.4381C332.056 78.4381 328.245 75.1325 333.613 70.1475C333.613 70.1475 324.434 70.5406 323.307 69.1291C322.18 67.7176 318.691 60.8743 327.762 62.2323C334.561 63.2507 335.634 57.0329 341.915 62.4288C342.913 63.6504 343.704 65.0264 344.258 66.5026C344.258 66.5026 348.892 67.0565 348.839 73.2922C348.785 79.528 342.237 79.2599 342.093 86.6392C342.093 86.6392 334.042 86.2461 332.736 81.279L332.056 78.4381Z" fill="#202020"/>
<path d="M330.839 78.6882C330.771 79.3366 330.897 79.9905 331.202 80.5669C331.507 81.1434 331.977 81.6163 332.552 81.9256C333.126 82.2348 333.78 82.3665 334.43 82.3039C335.08 82.2412 335.696 81.987 336.201 81.5737C336.706 81.1603 337.076 80.6064 337.265 79.9824C337.454 79.3583 337.452 78.6923 337.261 78.0689C337.07 77.4456 336.698 76.893 336.192 76.4815C335.685 76.0701 335.068 75.8182 334.418 75.7579C333.555 75.678 332.696 75.9407 332.026 76.4893C331.356 77.0378 330.93 77.8279 330.839 78.6882Z" fill="#E59C70"/>
<path d="M53.2803 278.375H441.806" stroke="#1D2738" stroke-width="0.54" stroke-linecap="round" stroke-linejoin="round"/>
</g>
<defs>
<linearGradient id="paint0_linear_1368_2" x1="496.999" y1="144.42" x2="-0.000681341" y2="144.42" gradientUnits="userSpaceOnUse">
<stop stop-color="#DAE3FE"/>
<stop offset="1" stop-color="#E9EFFD"/>
</linearGradient>
<clipPath id="clip0_1368_2">
<rect width="421" height="279" fill="white" transform="translate(38)"/>
</clipPath>
</defs>
</svg>
