<svg width="53" height="53" viewBox="0 0 53 53" fill="none" xmlns="http://www.w3.org/2000/svg">
<g clip-path="url(#clip0_369_835)">
<path d="M7.38704 47.7034L3.13379 0.00170898H49.8665L45.61 47.6967L26.4704 53.0001L7.38704 47.7034Z" fill="#E44D26"/>
<path d="M41.9644 44.6591L45.6032 3.9021H26.5V48.9471L41.9644 44.6591Z" fill="#F16529"/>
<path d="M26.4803 9.75195H11.8291L13.4075 27.444H26.5002V21.5941H18.7589L18.2239 15.6035H26.5002V9.75195H26.4803ZM26.5002 36.7687L26.4753 36.7753L19.9596 35.0164L19.5456 30.3507H13.6692L14.489 39.5363L26.4737 42.8488L26.5002 42.8405V36.7687Z" fill="#EBEBEB"/>
<path d="M26.4799 27.444H33.6846L33.0221 35.0296L26.4964 36.7902V42.877L38.491 39.5529L40.0976 21.5908H26.4997L26.4799 27.444ZM40.9953 11.3221L41.1344 9.75195H26.4766V15.6018H40.6077L40.7236 14.2868L40.9953 11.3221Z" fill="white"/>
</g>
<defs>
<clipPath id="clip0_369_835">
<rect width="53" height="53" fill="white"/>
</clipPath>
</defs>
</svg>
