<svg width="70" height="70" viewBox="0 0 70 70" fill="none" xmlns="http://www.w3.org/2000/svg">
<g clip-path="url(#clip0_427_57)">
<path d="M0 34.3404C0 44.3696 15.6703 52.5001 34.9998 52.5001C54.3293 52.5001 69.9995 44.3696 69.9995 34.3404C69.9995 24.3113 54.3293 16.1808 34.9998 16.1808C15.6703 16.1808 0 24.3114 0 34.3404Z" fill="url(#paint0_radial_427_57)"/>
<path d="M34.9998 51.1516C53.5744 51.1516 68.6324 43.625 68.6324 34.3404C68.6324 25.0558 53.5744 17.5292 34.9998 17.5292C16.4251 17.5292 1.36719 25.0558 1.36719 34.3404C1.36719 43.625 16.4251 51.1516 34.9998 51.1516Z" fill="#777BB3"/>
<path d="M19.0163 36.4246C20.5436 36.4246 21.6838 36.1468 22.4051 35.5993C23.1188 35.0574 23.6118 34.1182 23.8701 32.8083C24.111 31.5839 24.0193 30.729 23.5975 30.2676C23.1662 29.7964 22.2337 29.5574 20.826 29.5574H18.3854L17.0321 36.4247H19.0162L19.0163 36.4246ZM11.033 44.8839C10.9197 44.8839 10.8121 44.834 10.74 44.7476C10.7044 44.7049 10.6788 44.6551 10.665 44.6015C10.6512 44.548 10.6496 44.4921 10.6603 44.4379L14.2463 26.2395C14.2632 26.1542 14.3096 26.0773 14.3776 26.022C14.4456 25.9667 14.531 25.9365 14.6192 25.9365H22.348C24.777 25.9365 26.585 26.5858 27.7214 27.8702C28.8639 29.16 29.2167 30.9632 28.77 33.2292C28.5882 34.1524 28.2755 35.0097 27.8408 35.7776C27.4053 36.5461 26.8301 37.2572 26.1305 37.8915C25.293 38.6646 24.3451 39.2252 23.3157 39.5551C22.3026 39.8806 21.0016 40.0458 19.4486 40.0458H16.319L15.4253 44.581C15.4085 44.6663 15.3621 44.7432 15.2941 44.7986C15.2261 44.8539 15.1407 44.8841 15.0526 44.8842H11.033V44.8839Z" fill="black"/>
<path d="M18.6982 29.9319H20.8259C22.5248 29.9319 23.1151 30.2997 23.3156 30.5188C23.6483 30.8826 23.711 31.6498 23.4972 32.7372C23.257 33.9546 22.8116 34.8177 22.1733 35.3024C21.5199 35.7986 20.4575 36.0501 19.0162 36.0501H17.4925L18.6981 29.9319H18.6982ZM22.3478 25.5618H14.6189C14.4426 25.5618 14.2719 25.6223 14.1359 25.7329C13.9998 25.8435 13.9071 25.9974 13.8734 26.168L10.2874 44.3667C10.266 44.4751 10.2692 44.5869 10.2968 44.694C10.3244 44.801 10.3756 44.9008 10.4469 44.986C10.5181 45.0713 10.6076 45.1399 10.7089 45.1871C10.8102 45.2342 10.9209 45.2586 11.0329 45.2587H15.0521C15.2284 45.2587 15.3992 45.1982 15.5353 45.0876C15.6713 44.977 15.7641 44.8232 15.7977 44.6525L16.6317 40.4203H19.4484C21.0411 40.4203 22.382 40.249 23.4334 39.9113C24.5145 39.5648 25.5095 38.9773 26.3898 38.1652C27.118 37.5045 27.719 36.7628 28.1722 35.9606C28.6254 35.1583 28.9533 34.2632 29.1429 33.3008C29.6132 30.9155 29.2312 29.0053 28.0074 27.6239C26.7957 26.2557 24.8915 25.562 22.348 25.562M16.5713 36.7994H19.0162C20.6365 36.7994 21.8437 36.4985 22.6367 35.8961C23.4296 35.2938 23.9649 34.2886 24.2428 32.8799C24.5087 31.5274 24.3877 30.573 23.8795 30.0168C23.3714 29.4607 22.3528 29.1828 20.8262 29.1828H18.0723L16.5715 36.7993M22.3482 26.311C24.6733 26.311 26.3694 26.9128 27.4356 28.1165C28.5017 29.3201 28.8226 31.0005 28.3973 33.1577C28.2222 34.0463 27.9261 34.8588 27.5093 35.595C27.0924 36.3312 26.5469 37.005 25.8735 37.6157C25.0709 38.3565 24.1793 38.8843 23.1982 39.1989C22.2171 39.5142 20.9677 39.6712 19.4486 39.6712H16.0058L15.0526 44.5095H11.0334L14.6189 26.311H22.3479" fill="white"/>
<path d="M37.9859 40.0457C37.8724 40.0457 37.765 39.9957 37.6929 39.9093C37.6209 39.8229 37.5914 39.7095 37.6132 39.5997L39.1994 31.5474C39.3503 30.7816 39.313 30.232 39.0947 29.9998C38.961 29.8578 38.5595 29.6197 37.3722 29.6197H34.4983L32.5039 39.7424C32.4871 39.8277 32.4407 39.9047 32.3726 39.96C32.3046 40.0153 32.2192 40.0455 32.1311 40.0455H28.1434C28.0874 40.0455 28.0321 40.0333 27.9815 40.0097C27.9308 39.9862 27.8861 39.9519 27.8504 39.9092C27.8148 39.8666 27.7892 39.8167 27.7754 39.7632C27.7616 39.7096 27.76 39.6538 27.7706 39.5995L31.3567 21.4011C31.3735 21.3158 31.4199 21.2389 31.488 21.1836C31.556 21.1283 31.6414 21.0981 31.7295 21.0981H35.7171C35.7731 21.0981 35.8284 21.1103 35.8791 21.1339C35.9298 21.1574 35.9745 21.1918 36.0101 21.2344C36.0458 21.277 36.0714 21.3269 36.0852 21.3804C36.099 21.434 36.1006 21.4899 36.0899 21.5441L35.2245 25.9364H38.3161C40.6714 25.9364 42.2683 26.346 43.1987 27.1885C44.1482 28.0481 44.4428 29.4223 44.0782 31.274L42.4097 39.7426C42.3929 39.828 42.3465 39.9049 42.2785 39.9602C42.2105 40.0155 42.1251 40.0458 42.0369 40.0458H37.986L37.9859 40.0457Z" fill="black"/>
<path d="M35.716 20.7235H31.7284C31.5521 20.7234 31.3813 20.7839 31.2453 20.8945C31.1092 21.0051 31.0164 21.159 30.9828 21.3297L27.3967 39.528C27.3754 39.6365 27.3786 39.7483 27.4062 39.8554C27.4338 39.9625 27.4851 40.0622 27.5563 40.1475C27.6276 40.2327 27.7171 40.3014 27.8184 40.3485C27.9197 40.3956 28.0303 40.42 28.1424 40.42H32.13C32.3063 40.4201 32.4771 40.3596 32.6131 40.249C32.7492 40.1384 32.8419 39.9845 32.8756 39.8138L34.8103 29.9942H37.3712C38.5565 29.9942 38.8052 30.2439 38.8152 30.2547C38.8871 30.3308 38.9817 30.6842 38.8256 31.4758L37.2394 39.528C37.2181 39.6365 37.2213 39.7483 37.2489 39.8554C37.2765 39.9625 37.3277 40.0622 37.399 40.1475C37.4702 40.2327 37.5597 40.3014 37.6611 40.3485C37.7624 40.3956 37.873 40.42 37.985 40.42H42.0359C42.2122 40.4201 42.383 40.3596 42.5191 40.249C42.6551 40.1384 42.7479 39.9845 42.7816 39.8138L44.45 31.3452C44.8416 29.3574 44.5066 27.8661 43.455 26.9127C42.4514 26.0037 40.7703 25.5617 38.3154 25.5617H35.6844L36.462 21.6155C36.4834 21.507 36.4802 21.3952 36.4526 21.2881C36.425 21.181 36.3738 21.0812 36.3025 20.996C36.2313 20.9107 36.1418 20.842 36.0404 20.7949C35.9391 20.7478 35.8284 20.7233 35.7164 20.7233M35.7164 21.4725L34.7632 26.3108H38.3156C40.5508 26.3108 42.0925 26.6956 42.9412 27.4643C43.7899 28.2329 44.0438 29.4795 43.7048 31.2024L42.0363 39.6709H37.9854L39.5716 31.6189C39.7521 30.7029 39.6858 30.0781 39.3723 29.745C39.0589 29.4119 38.3918 29.245 37.3716 29.245H34.1843L32.1302 39.6709H28.1426L31.7287 21.4725H35.7163" fill="white"/>
<path d="M50.3872 36.4246C51.9145 36.4246 53.0547 36.1468 53.7761 35.5993C54.4898 35.0574 54.9827 34.1184 55.2412 32.8083C55.4821 31.5839 55.3903 30.729 54.9684 30.2676C54.5371 29.7964 53.6047 29.5574 52.197 29.5574H49.7563L48.403 36.4247H50.3871L50.3872 36.4246ZM42.4042 44.8839C42.2909 44.8839 42.1833 44.834 42.1112 44.7476C42.0756 44.7049 42.05 44.6551 42.0361 44.6016C42.0223 44.548 42.0207 44.4921 42.0314 44.4379L45.6174 26.2395C45.6343 26.1542 45.6807 26.0772 45.7487 26.022C45.8168 25.9667 45.9022 25.9364 45.9903 25.9365H53.7191C56.1484 25.9365 57.9561 26.5858 59.0926 27.8702C60.2351 29.16 60.5876 30.963 60.1412 33.2292C59.9591 34.1524 59.6466 35.0097 59.2117 35.7776C58.7763 36.5461 58.201 37.2572 57.5015 37.8915C56.664 38.6646 55.7161 39.2252 54.6866 39.5551C53.6735 39.8806 52.3725 40.0458 50.8195 40.0458H47.6896L46.7962 44.581C46.7794 44.6664 46.733 44.7433 46.665 44.7986C46.5969 44.8539 46.5115 44.8842 46.4233 44.8842H42.404L42.4042 44.8839Z" fill="black"/>
<path d="M50.0691 29.9319H52.1969C53.8957 29.9319 54.486 30.2997 54.6865 30.5188C55.0195 30.8826 55.0821 31.6498 54.8682 32.7371C54.6279 33.9544 54.1825 34.8177 53.5443 35.3024C52.8909 35.7986 51.8285 36.0501 50.3871 36.0501H48.8639L50.0693 29.9319H50.0691ZM53.7188 25.5618H45.9899C45.8136 25.5618 45.6428 25.6223 45.5068 25.7329C45.3708 25.8435 45.278 25.9974 45.2444 26.168L41.6585 44.3667C41.6371 44.4751 41.6403 44.5869 41.6679 44.694C41.6955 44.801 41.7467 44.9008 41.818 44.986C41.8892 45.0713 41.9787 45.1399 42.08 45.1871C42.1813 45.2342 42.2919 45.2586 42.404 45.2587H46.4232C46.5995 45.2587 46.7703 45.1982 46.9064 45.0876C47.0424 44.977 47.1352 44.8232 47.1688 44.6525L48.0027 40.4203H50.8193C52.4121 40.4203 53.7529 40.249 54.8044 39.9113C55.8855 39.5648 56.8805 38.9773 57.761 38.165C58.4892 37.5045 59.0887 36.7628 59.5432 35.9606C59.9977 35.1583 60.3243 34.2632 60.5139 33.3008C60.9842 30.9153 60.6021 29.0052 59.3784 27.6238C58.1666 26.2557 56.2626 25.562 53.719 25.562M47.9424 36.7994H50.3871C52.0075 36.7994 53.2147 36.4985 54.0076 35.8961C54.8006 35.2938 55.3358 34.2886 55.6138 32.8799C55.8799 31.5274 55.7588 30.573 55.2505 30.0168C54.7422 29.4607 53.7238 29.1828 52.1971 29.1828H49.4433L47.9425 36.7993M53.7191 26.311C56.0442 26.311 57.7404 26.9128 58.8066 28.1165C59.8727 29.3201 60.1936 31.0005 59.7683 33.1577C59.5932 34.0463 59.2971 34.8588 58.8802 35.595C58.4634 36.3312 57.9179 37.005 57.2444 37.6157C56.4418 38.3565 55.5503 38.8843 54.5692 39.1989C53.5881 39.5142 52.3387 39.6712 50.8196 39.6712H47.3768L46.4236 44.5095H42.4043L45.9904 26.3111H53.7193" fill="white"/>
</g>
<defs>
<radialGradient id="paint0_radial_427_57" cx="0" cy="0" r="1" gradientUnits="userSpaceOnUse" gradientTransform="translate(21.014 22.5652) scale(45.9597 45.3315)">
<stop stop-color="#AEB2D5"/>
<stop offset="0.3" stop-color="#AEB2D5"/>
<stop offset="0.75" stop-color="#484C89"/>
<stop offset="1" stop-color="#484C89"/>
</radialGradient>
<clipPath id="clip0_427_57">
<rect width="70" height="70" fill="white"/>
</clipPath>
</defs>
</svg>
