<svg width="19" height="19" viewBox="0 0 19 19" fill="none" xmlns="http://www.w3.org/2000/svg">
<path d="M16.9643 0H2.03571C1.49581 0 0.978017 0.214476 0.596247 0.596247C0.214476 0.978017 0 1.49581 0 2.03571L0 16.9643C0 17.5042 0.214476 18.022 0.596247 18.4038C0.978017 18.7855 1.49581 19 2.03571 19H16.9643C17.5042 19 18.022 18.7855 18.4038 18.4038C18.7855 18.022 19 17.5042 19 16.9643V2.03571C19 1.49581 18.7855 0.978017 18.4038 0.596247C18.022 0.214476 17.5042 0 16.9643 0ZM16.2692 13.0358L15.633 15.7925C15.6007 15.9326 15.5218 16.0577 15.4093 16.1473C15.2968 16.2369 15.1572 16.2857 15.0134 16.2857C8.22768 16.2857 2.71429 10.7846 2.71429 3.98661C2.71933 3.84413 2.76998 3.70704 2.85877 3.59549C2.94756 3.48395 3.06981 3.40386 3.20752 3.36699L5.96422 2.73083C6.01124 2.72088 6.05909 2.71534 6.10714 2.71429C6.23016 2.72049 6.34928 2.75952 6.45212 2.82731C6.55496 2.8951 6.63778 2.98919 6.69199 3.0998L7.96431 6.06855C7.99547 6.14859 8.01282 6.23335 8.01562 6.3192C8.00527 6.50752 7.92153 6.68428 7.78237 6.81158L6.17542 8.12632C7.1491 10.19 8.81001 11.8509 10.8737 12.8246L12.1884 11.2176C12.3157 11.0785 12.4925 10.9947 12.6808 10.9844C12.7667 10.9871 12.8514 11.0045 12.9315 11.0357L15.9002 12.308C16.0109 12.3621 16.105 12.4449 16.1728 12.5478C16.2406 12.6507 16.2796 12.7698 16.2857 12.8929C16.2849 12.9409 16.2793 12.9888 16.2692 13.0358Z" fill="black"/>
</svg>
