<svg width="117" height="16" viewBox="0 0 117 16" fill="none" xmlns="http://www.w3.org/2000/svg">
<path d="M50.4127 10.2971H58.144L54.0417 3.45281L46.547 15.9048H43.1546L52.2167 0.989329C52.6115 0.412585 53.2428 0 54.0312 0C54.7411 0 55.3715 0.328317 55.7672 0.908345L64.9183 15.8337H61.5354L59.9575 13.0298H52.1466L50.4127 10.2971ZM85.836 13.0189V0.0722298H82.9158V14.2555C82.9158 14.6681 83.0729 14.9975 83.3106 15.328C83.6247 15.6564 83.9419 15.8227 84.3367 15.8227H97.5115L99.2475 13.0189H85.836ZM38.0263 10.7207C40.8669 10.7207 43.0751 8.32941 43.0751 5.4435C43.0751 2.47442 40.7873 0.166348 38.0263 0.166348H25.4021V15.9168H28.3213V2.88591H37.8671C38.5146 2.88993 39.1345 3.16057 39.5924 3.63913C40.0502 4.1177 40.3091 4.76562 40.313 5.44241C40.3091 6.119 40.0504 6.76676 39.5927 7.2453C39.1351 7.72384 38.5155 7.9946 37.8682 7.99891H29.7432L38.3425 15.8326H42.5243L36.686 10.7196L38.0263 10.7207ZM7.49468 15.8337C3.31282 15.8337 0 12.2878 0 8C0 3.629 3.3924 0.166348 7.49468 0.166348H16.2521C20.434 0.166348 23.7468 3.71217 23.7468 8C23.7468 12.371 20.3544 15.8337 16.2521 15.8337H7.49468ZM16.094 13.0298C17.389 13.0218 18.6288 12.4805 19.5445 11.5234C20.4602 10.5662 20.9781 9.2704 20.9857 7.91683C20.9781 6.56326 20.4602 5.26741 19.5445 4.31028C18.6288 3.35314 17.389 2.81187 16.094 2.80383H7.73131C6.43631 2.81187 5.19654 3.35314 4.28082 4.31028C3.3651 5.26741 2.84725 6.56326 2.83956 7.91683C2.84725 9.2704 3.3651 10.5662 4.28082 11.5234C5.19654 12.4805 6.43631 13.0218 7.73131 13.0298H16.094ZM71.0037 15.8337C66.8218 15.8337 63.509 12.2878 63.509 8C63.509 3.629 66.9014 0.166348 71.0037 0.166348H81.4175L79.6815 2.97018H71.1608C69.8658 2.97822 68.626 3.51949 67.7103 4.47662C66.7945 5.43376 66.2767 6.7296 66.269 8.08317C66.2767 9.43674 66.7945 10.7326 67.7103 11.6897C68.626 12.6469 69.8658 13.1881 71.1608 13.1962H81.5746L79.8386 16H71.0016L71.0037 15.8337ZM106.427 13.0298C104.228 13.0298 102.325 11.4627 101.772 9.31984H114.158L115.894 6.51601H101.851C102.403 4.371 104.297 2.80602 106.507 2.80602H115.027L116.763 0.00218967H106.348C102.167 0.00218967 98.8538 3.54802 98.8538 7.83584C98.8538 12.2068 102.246 15.6695 106.348 15.6695H115.264L117 12.8657H106.428L106.427 13.0298Z" fill="#E30613"/>
</svg>
